<?xml version="1.0" encoding="utf-8"?>
<!-- Generator: Adobe Illustrator 24.2.1, SVG Export Plug-In . SVG Version: 6.00 Build 0)  -->
<svg version="1.1" id="Layer_1" xmlns="http://www.w3.org/2000/svg" xmlns:xlink="http://www.w3.org/1999/xlink" x="0px" y="0px"
	 viewBox="0 0 144.4 58.4" enable-background="new 0 0 144.4 58.4" xml:space="preserve">
<polygon fill="#DADBDC" points="18.8,32.3 0,33.3 0,14.7 20,15.8 "/>
<g>
	<path fill="#D6D6D6" stroke="#000000" stroke-width="0.75" stroke-miterlimit="10" d="M56.7,29.1c-1,3.9-3.1,7-6,9.1
		c-3.6,2.7-8.3,3.7-13.2,2.4c-8.7-2.2-14-11.2-11.7-19.9"/>
	<path fill="#FFFFFF" stroke="#000000" stroke-width="0.6226" stroke-miterlimit="10" d="M47.1,29.3c-3.2-2.4-5.2-1.7-6.4-0.5
		c-1.1,1-1.8,2.2,0.8,4.1c2.5,1.9,7.1,5.3,7.1,5.3s2,1.9,3.9-0.6"/>
	<path fill="#DADBDC" stroke="#000000" stroke-width="0.75" stroke-miterlimit="10" d="M55,43.9c0,0,3.9,2.1,4.2-1.5
		c0,0-1.3-19.3-2.1-20.4c-0.2-0.3-9.3-12.5-11.6-13.3C43.3,7.8,20,15.8,20,15.8L0,14.7"/>
	<path fill="#FFFFFF" stroke="#000000" stroke-width="0.6226" stroke-miterlimit="10" d="M47.5,25.7c-3.2-2.4-5.2-1.7-6.4-0.5
		c-1.3,1.4-1.7,2.2,0.9,4.2c2.9,2.2,11.3,8.4,11.3,8.4l1.6-9.8"/>
	<rect x="36.4" y="0.4" fill="#FFFFFF" stroke="#000000" stroke-width="0.75" stroke-miterlimit="10" width="107.6" height="57.7"/>
	<line fill="none" stroke="#000000" stroke-width="0.5" stroke-miterlimit="10" x1="41" y1="6.3" x2="67.5" y2="6.3"/>
	<line fill="none" stroke="#000000" stroke-width="0.5" stroke-miterlimit="10" x1="41" y1="9" x2="67.5" y2="9"/>
	<line fill="none" stroke="#000000" stroke-width="0.5" stroke-miterlimit="10" x1="41" y1="11.8" x2="67.5" y2="11.8"/>
	<line fill="none" stroke="#000000" stroke-width="0.5" stroke-miterlimit="10" x1="41" y1="14.6" x2="67.5" y2="14.6"/>
	<g>
		<rect x="131.5" y="3.3" fill="#FFFFFF" stroke="#000000" stroke-width="0.5" stroke-miterlimit="10" width="9" height="9"/>
		<rect x="132.1" y="3.9" fill="#DADBDC" width="7.7" height="7.7"/>
		<g>
			<path d="M136.2,7.1v0.4c1-0.2,2-0.4,3-0.2V6.9C138.2,6.7,137.2,6.9,136.2,7.1z"/>
			<path d="M136.2,6.4v0.4c1-0.2,2-0.4,3-0.2V6.1C138.2,5.9,137.2,6.1,136.2,6.4z"/>
			<path d="M136.2,7.9L136.2,7.9h-0.1c-0.8,0.2-1.5,0.3-2.3,0.3c-0.3,0-0.6,0-0.9-0.1v0.4c1,0.2,2,0,3.1-0.2c1-0.2,2.1-0.5,3.2-0.3
				V7.7C138.2,7.5,137.2,7.7,136.2,7.9z"/>
			<path d="M136,9.2c1-0.2,2.1-0.5,3.2-0.3V8.5c-1-0.2-2,0-3.1,0.2c-0.7,0.2-1.5,0.3-2.3,0.3c-0.3,0-0.6,0-0.9-0.1v0.4
				C133.9,9.6,134.9,9.4,136,9.2z"/>
			<path d="M135.9,7.7v-2c-1,0.2-2,0.4-3,0.2v2C133.9,8.1,134.8,7.9,135.9,7.7z M134,6.7C134,6.7,134.1,6.7,134,6.7l0.3-0.4l0.2,0.4
				h0.1h0.4L134.6,7l0.1,0.4l-0.4-0.1l-0.4,0.2L134,7l-0.3-0.3H134z"/>
			<path d="M136.2,6c1-0.2,2-0.4,3-0.2V5.4c-1-0.2-1.9,0-3,0.2V6z"/>
			<path d="M136,9.5c-0.7,0.2-1.5,0.3-2.3,0.3c-0.3,0-0.6,0-0.9-0.1v0.5c1,0.2,2,0,3.1-0.2c1-0.2,2.1-0.5,3.2-0.3V9.2
				C138.1,9,137.1,9.2,136,9.5z"/>
		</g>
	</g>
	<g>
		<path fill="#DADBDC" stroke="#000000" stroke-width="0.75" stroke-miterlimit="10" d="M0,33.3l16.9-0.7c0,0,18.9,12.2,26.7-4.1
			c2.8,8,9.5,8.8,11.6,7.4c0.5-0.3,2.4-1.2,0.9-3.5S52,25.8,52,25.8s-2.6-4.2-4.4-6.9c-1.8-2.8-3.8-2.2-4.7-1.8
			c-0.9,0.3-7.8,1.2-7.8,1.2"/>
		<path fill="none" stroke="#000000" stroke-width="0.75" stroke-miterlimit="10" d="M52.7,27.1c-1.4,0.9-1.6,3-0.5,4.8
			c1.1,1.7,3.1,2.4,4.5,1.5"/>
	</g>
	<g>
		<path d="M82.519,32.315l-0.315-0.806c-0.031-0.083-0.066-0.107-0.156-0.107h-0.422v0.914h-0.422v-2.291
			c0.256-0.028,0.502-0.042,0.758-0.042c0.46,0,0.934,0.118,0.934,0.685c0,0.287-0.104,0.512-0.395,0.626v0.003
			c0.045,0.017,0.076,0.08,0.093,0.125l0.367,0.893H82.519z M81.979,30.311c-0.125,0-0.232,0.01-0.353,0.024v0.73h0.408
			c0.267,0,0.45-0.073,0.45-0.37C82.484,30.37,82.249,30.311,81.979,30.311z"/>
		<path d="M83.425,32.315v-2.308h1.488v0.353h-1.066v0.578h0.965v0.356h-0.965v0.675h1.104v0.346H83.425z"/>
		<path d="M86.95,31.501v-0.093h-0.564v-0.356h0.965v0.253c0,0.678-0.298,1.045-0.972,1.045c-0.658,0-1.09-0.436-1.09-1.183
			c0-0.741,0.436-1.197,1.093-1.197c0.395,0,0.65,0.177,0.82,0.332l-0.253,0.27c-0.187-0.173-0.36-0.249-0.55-0.249
			c-0.491,0-0.671,0.336-0.671,0.841c0,0.491,0.163,0.868,0.668,0.868C86.749,32.031,86.95,31.837,86.95,31.501z"/>
		<path d="M87.877,32.315v-2.308h0.422v2.308H87.877z"/>
		<path d="M89.617,32.349c-0.336,0-0.595-0.08-0.876-0.263l0.187-0.308c0.197,0.135,0.412,0.242,0.668,0.242
			c0.218,0,0.436-0.08,0.436-0.332c0-0.256-0.325-0.318-0.64-0.433c-0.294-0.111-0.581-0.263-0.581-0.664
			c0-0.46,0.395-0.619,0.796-0.619c0.273,0,0.516,0.076,0.754,0.208l-0.152,0.325c-0.17-0.111-0.373-0.194-0.578-0.194
			c-0.211,0-0.398,0.066-0.398,0.266c0,0.208,0.232,0.277,0.502,0.363c0.332,0.107,0.709,0.242,0.709,0.716
			C90.443,32.152,90.084,32.349,89.617,32.349z"/>
		<path d="M91.692,30.367v1.948h-0.426v-1.948h-0.647v-0.36h1.723v0.36L91.692,30.367z"/>
		<path d="M94.031,32.315l-0.315-0.806c-0.031-0.083-0.066-0.107-0.156-0.107h-0.422v0.914h-0.422v-2.291
			c0.256-0.028,0.502-0.042,0.757-0.042c0.461,0,0.935,0.118,0.935,0.685c0,0.287-0.104,0.512-0.394,0.626v0.003
			c0.045,0.017,0.076,0.08,0.093,0.125l0.367,0.893H94.031z M93.491,30.311c-0.125,0-0.232,0.01-0.353,0.024v0.73h0.408
			c0.267,0,0.45-0.073,0.45-0.37C93.996,30.37,93.761,30.311,93.491,30.311z"/>
		<path d="M96.424,32.315l-0.19-0.516h-0.951l-0.194,0.516h-0.433l0.872-2.318h0.457l0.889,2.318H96.424z M95.757,30.408H95.75
			l-0.37,1.049h0.747L95.757,30.408z"/>
		<path d="M98.566,32.315l-0.315-0.806c-0.031-0.083-0.066-0.107-0.156-0.107h-0.422v0.914h-0.422v-2.291
			c0.256-0.028,0.502-0.042,0.758-0.042c0.46,0,0.934,0.118,0.934,0.685c0,0.287-0.104,0.512-0.394,0.626v0.003
			c0.045,0.017,0.076,0.08,0.093,0.125l0.367,0.893H98.566z M98.026,30.311c-0.125,0-0.232,0.01-0.353,0.024v0.73h0.408
			c0.267,0,0.45-0.073,0.45-0.37C98.531,30.37,98.296,30.311,98.026,30.311z"/>
		<path d="M101.451,32.349c-0.706,0-1.107-0.429-1.107-1.19c0-0.747,0.398-1.19,1.107-1.19c0.713,0,1.107,0.436,1.107,1.19
			C102.558,31.92,102.156,32.349,101.451,32.349z M101.451,30.308c-0.522,0-0.668,0.356-0.668,0.851
			c0,0.491,0.149,0.851,0.668,0.851c0.522,0,0.668-0.36,0.668-0.851C102.118,30.668,101.973,30.308,101.451,30.308z"/>
		<path d="M103.501,30.36v0.595h0.941v0.356h-0.941v1.004h-0.419v-2.308h1.46v0.353L103.501,30.36z"/>
		<path d="M106.915,32.315h-0.443l-0.768-2.308h0.443l0.55,1.827h0.007l0.543-1.827h0.439L106.915,32.315z"/>
		<path d="M109.112,32.349c-0.706,0-1.107-0.429-1.107-1.19c0-0.747,0.398-1.19,1.107-1.19c0.713,0,1.107,0.436,1.107,1.19
			C110.219,31.92,109.818,32.349,109.112,32.349z M109.112,30.308c-0.522,0-0.668,0.356-0.668,0.851
			c0,0.491,0.149,0.851,0.668,0.851c0.522,0,0.668-0.36,0.668-0.851C109.78,30.668,109.634,30.308,109.112,30.308z"/>
		<path d="M111.464,30.367v1.948h-0.426v-1.948h-0.647v-0.36h1.723v0.36L111.464,30.367z"/>
		<path d="M112.487,32.315v-2.308h1.488v0.353h-1.066v0.578h0.965v0.356h-0.965v0.675h1.104v0.346H112.487z"/>
		<path d="M115.774,32.315l-0.315-0.806c-0.031-0.083-0.066-0.107-0.156-0.107h-0.422v0.914h-0.422v-2.291
			c0.256-0.028,0.502-0.042,0.757-0.042c0.461,0,0.935,0.118,0.935,0.685c0,0.287-0.104,0.512-0.394,0.626v0.003
			c0.045,0.017,0.076,0.08,0.093,0.125l0.367,0.893H115.774z M115.234,30.311c-0.125,0-0.232,0.01-0.353,0.024v0.73h0.408
			c0.267,0,0.45-0.073,0.45-0.37C115.739,30.37,115.504,30.311,115.234,30.311z"/>
		<path d="M117.41,32.349c-0.335,0-0.595-0.08-0.876-0.263l0.187-0.308c0.197,0.135,0.412,0.242,0.668,0.242
			c0.218,0,0.436-0.08,0.436-0.332c0-0.256-0.325-0.318-0.64-0.433c-0.294-0.111-0.581-0.263-0.581-0.664
			c0-0.46,0.395-0.619,0.796-0.619c0.273,0,0.516,0.076,0.754,0.208l-0.152,0.325c-0.17-0.111-0.374-0.194-0.578-0.194
			c-0.211,0-0.398,0.066-0.398,0.266c0,0.208,0.232,0.277,0.502,0.363c0.332,0.107,0.709,0.242,0.709,0.716
			C118.237,32.152,117.877,32.349,117.41,32.349z"/>
		<path d="M82.176,36.196c-0.682,0-1.028-0.457-1.028-1.197c0-0.626,0.312-1.187,1.042-1.187c0.294,0,0.533,0.097,0.778,0.312
			l-0.18,0.194c-0.197-0.18-0.37-0.256-0.592-0.256c-0.446,0-0.74,0.298-0.74,0.938c0,0.488,0.166,0.952,0.733,0.952
			c0.215,0,0.429-0.083,0.633-0.277l0.159,0.204C82.729,36.103,82.477,36.196,82.176,36.196z"/>
		<path d="M84.317,36.196c-0.744,0-1.059-0.522-1.059-1.194c0-0.647,0.308-1.19,1.059-1.19c0.747,0,1.059,0.529,1.059,1.19
			C85.376,35.674,85.061,36.196,84.317,36.196z M84.317,34.051c-0.595,0-0.751,0.464-0.751,0.955c0,0.481,0.155,0.952,0.751,0.952
			c0.599,0,0.751-0.471,0.751-0.952C85.068,34.518,84.916,34.051,84.317,34.051z"/>
		<path d="M86.773,36.196c-0.595,0-0.844-0.291-0.844-0.931V33.85h0.29v1.425c0,0.398,0.118,0.675,0.557,0.675
			s0.557-0.277,0.557-0.675V33.85h0.29v1.415C87.624,35.905,87.368,36.196,86.773,36.196z"/>
		<path d="M89.786,36.158l-1.242-1.82H88.54v1.82h-0.287V33.85h0.28l1.239,1.83h0.003v-1.83h0.287v2.308L89.786,36.158z"/>
		<path d="M91.401,34.103v2.055h-0.294v-2.055h-0.65V33.85h1.599v0.253L91.401,34.103z"/>
		<path d="M93.276,35.238v0.92h-0.298v-0.91l-0.782-1.398h0.332l0.599,1.131l0.602-1.131h0.322L93.276,35.238z"/>
		<path d="M96.241,36.196c-0.744,0-1.059-0.522-1.059-1.194c0-0.647,0.308-1.19,1.059-1.19c0.747,0,1.059,0.529,1.059,1.19
			C97.299,35.674,96.984,36.196,96.241,36.196z M96.241,34.051c-0.595,0-0.751,0.464-0.751,0.955c0,0.481,0.155,0.952,0.751,0.952
			c0.599,0,0.751-0.471,0.751-0.952C96.992,34.518,96.839,34.051,96.241,34.051z"/>
		<path d="M98.143,34.099v0.723h0.938v0.253h-0.938v1.083h-0.29V33.85h1.332v0.249H98.143z"/>
		<path d="M101.294,36.158h-0.328l-0.741-2.308h0.315l0.591,1.986h0.003l0.595-1.986h0.308L101.294,36.158z"/>
		<path d="M103.425,36.196c-0.744,0-1.059-0.522-1.059-1.194c0-0.647,0.308-1.19,1.059-1.19c0.747,0,1.059,0.529,1.059,1.19
			C104.484,35.674,104.169,36.196,103.425,36.196z M103.425,34.051c-0.595,0-0.751,0.464-0.751,0.955
			c0,0.481,0.155,0.952,0.751,0.952c0.599,0,0.751-0.471,0.751-0.952C104.175,34.518,104.023,34.051,103.425,34.051z"/>
		<path d="M105.607,34.103v2.055h-0.294v-2.055h-0.651V33.85h1.599v0.253L105.607,34.103z"/>
		<path d="M106.655,36.158V33.85h1.356v0.249h-1.066v0.709h0.965v0.253h-0.965v0.851h1.104v0.246L106.655,36.158z"/>
		<path d="M109.797,36.158l-0.301-0.837c-0.035-0.1-0.093-0.138-0.208-0.138H108.8v0.976h-0.291v-2.297
			c0.242-0.021,0.443-0.038,0.692-0.038c0.429,0,0.851,0.128,0.851,0.664c0,0.291-0.104,0.512-0.391,0.619v0.003
			c0.052,0.018,0.086,0.087,0.107,0.142l0.335,0.907h-0.306V36.158z M109.205,34.061c-0.142,0-0.266,0.007-0.402,0.024v0.862h0.461
			c0.308,0,0.498-0.104,0.498-0.436C109.762,34.144,109.517,34.061,109.205,34.061z"/>
		<path d="M111.242,36.196c-0.301,0-0.54-0.076-0.793-0.249l0.135-0.221c0.18,0.132,0.387,0.235,0.637,0.235
			c0.284,0,0.477-0.135,0.477-0.429c0-0.287-0.311-0.374-0.616-0.498c-0.291-0.114-0.567-0.263-0.567-0.644
			c0-0.415,0.346-0.574,0.713-0.574c0.253,0,0.477,0.073,0.692,0.204l-0.111,0.239c-0.166-0.121-0.356-0.204-0.574-0.204
			c-0.221,0-0.418,0.093-0.418,0.329c0,0.242,0.225,0.329,0.488,0.425c0.322,0.118,0.689,0.253,0.689,0.713
			C111.993,35.968,111.695,36.196,111.242,36.196z"/>
		<path d="M82.051,39.116h-0.533v0.886h-0.294v-2.297c0.225-0.021,0.467-0.038,0.713-0.038c0.505,0,0.872,0.159,0.872,0.716
			C82.809,38.87,82.57,39.116,82.051,39.116z M81.937,37.905c-0.145,0-0.27,0.01-0.419,0.024v0.948h0.436
			c0.363,0,0.56-0.073,0.56-0.481C82.515,38.015,82.328,37.905,81.937,37.905z"/>
		<path d="M83.033,40.04c-0.125,0-0.207-0.076-0.207-0.19s0.083-0.183,0.207-0.183c0.125,0,0.204,0.069,0.204,0.183
			S83.154,40.04,83.033,40.04z"/>
		<path d="M84.697,40.04c-0.744,0-1.059-0.522-1.059-1.194c0-0.647,0.308-1.19,1.059-1.19c0.747,0,1.059,0.53,1.059,1.19
			C85.756,39.517,85.441,40.04,84.697,40.04z M84.697,37.895c-0.595,0-0.751,0.464-0.751,0.955c0,0.481,0.155,0.952,0.751,0.952
			c0.599,0,0.751-0.471,0.751-0.952C85.448,38.362,85.296,37.895,84.697,37.895z"/>
		<path d="M86.237,40.04c-0.125,0-0.208-0.076-0.208-0.19s0.083-0.183,0.208-0.183s0.204,0.069,0.204,0.183
			S86.358,40.04,86.237,40.04z"/>
		<path d="M88.672,40.002h-0.924v-2.297c0.183-0.021,0.471-0.038,0.716-0.038c0.391,0,0.865,0.048,0.865,0.612
			c0,0.26-0.135,0.429-0.363,0.505v0.003c0.284,0.052,0.457,0.27,0.457,0.595C89.423,39.728,89.236,40.002,88.672,40.002z
			 M88.468,37.898c-0.124,0-0.287,0.007-0.429,0.024v0.772c0.135,0.003,0.28,0.003,0.429,0.003c0.339,0,0.567-0.048,0.567-0.405
			C89.035,37.964,88.804,37.898,88.468,37.898z M88.475,38.912c-0.197,0-0.294,0.004-0.436,0.007v0.855
			c0.156,0.007,0.266,0.007,0.439,0.007c0.353,0,0.647-0.024,0.647-0.422C89.126,38.925,88.783,38.912,88.475,38.912z"/>
		<path d="M90.928,40.04c-0.744,0-1.059-0.522-1.059-1.194c0-0.647,0.308-1.19,1.059-1.19c0.747,0,1.059,0.53,1.059,1.19
			C91.986,39.517,91.672,40.04,90.928,40.04z M90.928,37.895c-0.595,0-0.751,0.464-0.751,0.955c0,0.481,0.155,0.952,0.751,0.952
			c0.599,0,0.751-0.471,0.751-0.952C91.678,38.362,91.526,37.895,90.928,37.895z"/>
		<path d="M93.636,40.002l-0.554-0.948h-0.003l-0.561,0.948H92.18l0.73-1.194l-0.64-1.114h0.339l0.485,0.889H93.1l0.498-0.889h0.336
			l-0.668,1.135l0.706,1.173H93.636z"/>
		<path d="M95.795,39.756v-1.747h-0.014l-0.529,0.318l-0.118-0.218l0.699-0.426h0.243v2.073h0.55v0.246h-1.408v-0.246L95.795,39.756
			z"/>
		<path d="M97.797,39.756v-1.747h-0.014l-0.529,0.318l-0.118-0.218l0.699-0.426h0.243v2.073h0.55v0.246H97.22v-0.246L97.797,39.756z
			"/>
		<path d="M99.177,40.002l-0.042-0.266c0.658-0.585,1.159-0.944,1.159-1.398c0-0.194-0.086-0.439-0.401-0.439
			c-0.208,0-0.398,0.111-0.581,0.315l-0.156-0.208c0.243-0.253,0.457-0.35,0.751-0.35c0.408,0,0.674,0.208,0.674,0.651
			c0,0.436-0.287,0.82-1.125,1.45h1.177v0.246h-1.456V40.002z"/>
		<path d="M101.796,40.04c-0.222,0-0.429-0.062-0.609-0.201l0.145-0.197c0.159,0.118,0.277,0.166,0.464,0.166
			c0.391,0,0.595-0.204,0.598-0.976h-0.007c-0.104,0.222-0.312,0.349-0.564,0.349c-0.453,0-0.747-0.287-0.747-0.754
			c0-0.491,0.329-0.772,0.785-0.772c0.536,0,0.806,0.329,0.806,1.138C102.668,39.669,102.398,40.04,101.796,40.04z M101.862,37.895
			c-0.322,0-0.498,0.211-0.498,0.536c0,0.315,0.183,0.509,0.498,0.509c0.325,0,0.484-0.208,0.484-0.512
			C102.346,38.088,102.17,37.895,101.862,37.895z"/>
		<path d="M103.892,40.043c-0.567,0-0.796-0.266-0.796-0.699c0-0.284,0.111-0.474,0.384-0.575v-0.01
			c-0.221-0.086-0.322-0.273-0.322-0.502c0-0.329,0.166-0.602,0.73-0.602c0.477,0,0.734,0.197,0.734,0.602
			c0,0.228-0.1,0.412-0.329,0.502v0.01c0.266,0.083,0.391,0.291,0.391,0.575C104.685,39.777,104.45,40.043,103.892,40.043z
			 M103.889,38.884c-0.315,0-0.509,0.111-0.509,0.481c0,0.315,0.166,0.45,0.509,0.45c0.335,0,0.508-0.124,0.508-0.464
			C104.397,39.064,104.28,38.884,103.889,38.884z M103.889,37.891c-0.311,0-0.446,0.114-0.446,0.377s0.142,0.398,0.446,0.398
			s0.45-0.135,0.45-0.398C104.339,38.005,104.2,37.891,103.889,37.891z"/>
		<path d="M81.85,43.883c-0.301,0-0.54-0.076-0.792-0.249l0.135-0.221c0.18,0.132,0.387,0.235,0.637,0.235
			c0.284,0,0.477-0.135,0.477-0.429c0-0.287-0.311-0.374-0.616-0.498c-0.29-0.114-0.567-0.263-0.567-0.644
			c0-0.415,0.346-0.574,0.713-0.574c0.253,0,0.478,0.073,0.692,0.204l-0.111,0.239c-0.166-0.121-0.356-0.204-0.574-0.204
			c-0.221,0-0.418,0.093-0.418,0.329c0,0.242,0.225,0.329,0.488,0.425c0.322,0.118,0.689,0.253,0.689,0.713
			C82.602,43.655,82.304,43.883,81.85,43.883z"/>
		<path d="M84.604,43.845l-0.201-0.564h-1.021l-0.201,0.564h-0.304l0.848-2.322h0.332l0.858,2.322H84.604z M83.892,41.811h-0.007
			l-0.429,1.225h0.868L83.892,41.811z"/>
		<path d="M86.856,43.845l-1.242-1.82h-0.003v1.82h-0.287v-2.308h0.28l1.239,1.83h0.003v-1.83h0.287v2.308H86.856z"/>
		<path d="M88.471,41.79v2.055h-0.294V41.79h-0.65v-0.253h1.598v0.253H88.471z"/>
		<path d="M90.8,43.845l-0.201-0.564h-1.021l-0.201,0.564h-0.304l0.848-2.322h0.332l0.858,2.322H90.8z M90.087,41.811H90.08
			l-0.429,1.225h0.868L90.087,41.811z"/>
		<path d="M93.854,43.845l-0.201-0.564h-1.021l-0.201,0.564h-0.304l0.848-2.322h0.332l0.858,2.322H93.854z M93.141,41.811h-0.007
			l-0.429,1.225h0.868L93.141,41.811z"/>
		<path d="M96.106,43.845l-1.242-1.82H94.86v1.82h-0.287v-2.308h0.28l1.239,1.83h0.003v-1.83h0.287v2.308H96.106z"/>
		<path d="M98.517,43.845l-0.201-0.564h-1.021l-0.201,0.564H96.79l0.848-2.322h0.332l0.858,2.322H98.517z M97.804,41.811h-0.007
			l-0.429,1.225h0.869L97.804,41.811z"/>
		<path d="M99.229,44.25h-0.194l0.132-0.73h0.346L99.229,44.25z"/>
		<path d="M101.748,43.883c-0.682,0-1.028-0.457-1.028-1.197c0-0.626,0.312-1.187,1.042-1.187c0.294,0,0.533,0.097,0.778,0.312
			l-0.18,0.194c-0.197-0.18-0.37-0.256-0.592-0.256c-0.446,0-0.74,0.298-0.74,0.938c0,0.488,0.166,0.952,0.733,0.952
			c0.214,0,0.429-0.083,0.633-0.277l0.159,0.204C102.301,43.79,102.049,43.883,101.748,43.883z"/>
		<path d="M104.498,43.845l-0.201-0.564h-1.02l-0.201,0.564h-0.304l0.848-2.322h0.332l0.858,2.322H104.498z M103.785,41.811h-0.007
			l-0.429,1.225h0.869L103.785,41.811z"/>
		<path d="M106.643,43.883c-0.221,0-0.429-0.062-0.609-0.201l0.145-0.197c0.159,0.118,0.277,0.166,0.464,0.166
			c0.391,0,0.595-0.204,0.598-0.976h-0.007c-0.104,0.221-0.312,0.349-0.564,0.349c-0.453,0-0.747-0.287-0.747-0.754
			c0-0.491,0.329-0.772,0.786-0.772c0.536,0,0.806,0.329,0.806,1.138C107.515,43.513,107.245,43.883,106.643,43.883z
			 M106.708,41.738c-0.322,0-0.498,0.211-0.498,0.536c0,0.315,0.184,0.509,0.498,0.509c0.325,0,0.484-0.208,0.484-0.512
			C107.192,41.932,107.016,41.738,106.708,41.738z"/>
		<path d="M108.03,43.845l-0.042-0.266c0.658-0.585,1.159-0.945,1.159-1.398c0-0.194-0.086-0.44-0.401-0.44
			c-0.207,0-0.398,0.111-0.581,0.315l-0.156-0.208c0.242-0.253,0.457-0.35,0.751-0.35c0.408,0,0.674,0.208,0.674,0.651
			c0,0.436-0.287,0.82-1.124,1.45h1.177v0.246C109.487,43.845,108.03,43.845,108.03,43.845z"/>
		<path d="M110.797,43.613v0.232h-0.298v-0.104c0-0.637,0.035-1.467,0.654-1.952v-0.007h-1.173v-0.246h1.471l0.045,0.246
			C110.894,42.302,110.797,42.71,110.797,43.613z"/>
		<path d="M112.658,43.599v-1.747h-0.014l-0.529,0.318l-0.118-0.218l0.699-0.426h0.242v2.073h0.55v0.246h-1.408v-0.246H112.658z"/>
		<path d="M114.661,43.599v-1.747h-0.014l-0.529,0.318L114,41.952l0.699-0.426h0.242v2.073h0.55v0.246h-1.408v-0.246H114.661z"/>
	</g>
</g>
</svg>
