<?xml version="1.0" encoding="utf-8"?>
<!-- Generator: Adobe Illustrator 24.2.1, SVG Export Plug-In . SVG Version: 6.00 Build 0)  -->
<svg version="1.1" id="Layer_1" xmlns="http://www.w3.org/2000/svg" xmlns:xlink="http://www.w3.org/1999/xlink" x="0px" y="0px"
	 viewBox="0 0 181.7 148.3" enable-background="new 0 0 181.7 148.3" xml:space="preserve">
<g>
	<rect x="0.4" y="91.7" fill="#FFFFFF" stroke="#000000" stroke-width="0.75" stroke-miterlimit="10" width="118.2" height="56.2"/>
	<polygon fill="#FFFFFF" stroke="#000000" stroke-width="0.75" stroke-miterlimit="10" points="118.6,92.1 0.4,92.1 7.7,45.2 
		111.4,45.2 	"/>
	<g>
		
			<rect x="53.3" y="60.2" fill="#FFFFFF" stroke="#000000" stroke-width="0.4023" stroke-miterlimit="10" width="49.9" height="14.1"/>
		<line fill="none" stroke="#000000" stroke-width="1.5434" stroke-miterlimit="10" x1="56.4" y1="65" x2="60.8" y2="69.4"/>
		<line fill="none" stroke="#000000" stroke-width="1.5434" stroke-miterlimit="10" x1="60.8" y1="65" x2="56.4" y2="69.4"/>
		<g>
			
				<path fill="none" stroke="#000000" stroke-width="0.5145" stroke-linecap="round" stroke-linejoin="round" stroke-miterlimit="10" d="
				M64.5,70.2c0.7,0,2.6-6,3.4-6c0.7,0-1.1,6-0.4,6s2.6-6,3.4-6c0.7,0-1.1,6-0.4,6s2.6-6,3.4-6c0.7,0-1.1,6-0.4,6s2.6-6,3.4-6
				c0.7,0-1.1,6-0.4,6s2.6-6,3.4-6c0.7,0-1.1,6-0.4,6s2.6-6,3.4-6c0.7,0-1.1,6-0.4,6s2.6-6,3.4-6c0.7,0-1.1,6-0.4,6s2.6-6,3.4-6
				c0.7,0-1.1,6-0.4,6s2.6-6,3.4-6c0.7,0-1.1,6-0.4,6"/>
		</g>
	</g>
	<g>
		<polygon fill="#DADBDC" points="181.7,81.2 153.7,76.5 156.8,49.8 181.7,54.1 		"/>
		<path fill="#DADBDC" stroke="#000000" stroke-width="0.75" stroke-miterlimit="10" d="M104.3,46.2c-1.1,6.6,0.1,12.9,3.1,18.1
			c3.7,6.5,10.3,11.3,18.6,12.6c15,2.5,29.2-7.7,31.6-22.7"/>
		<path fill="#DADBDC" stroke="#000000" stroke-width="0.75" stroke-miterlimit="10" d="M117.2,62.5c6.6,1.1,8.1,4.3,8.1,7.1
			c0,2.5-0.5,4.8-5.9,3.9c-5.3-0.9-14.8-2.4-14.8-2.4s-4.7-0.2-3.9-5.4"/>
		<path fill="#DADBDC" stroke="#000000" stroke-width="0.75" stroke-miterlimit="10" d="M181.6,81.3L162.2,78c0,0-36.9,11-30.9-25.7
			c-7.5,12.1-18.9,11-21.8,8c-0.8-0.6-3.6-2.9-0.2-6.2c3.3-3.2,9.1-9.3,9.1-9.3s5.8-5.9,9.7-9.8c3.9-3.9,7-2.2,8.4-1.3"/>
		<path fill="#DADBDC" stroke="#000000" stroke-width="0.75" stroke-miterlimit="10" d="M98.3,61.1c0,0-7.4-0.5-4.7-5.8
			c0,0,19.1-26.3,21.3-27.2c0.6-0.3,24.5-9.4,28.5-8.5c4,0.8,30,33.1,30,33.1l8.2,1.5"/>
		<path fill="#DADBDC" stroke="#000000" stroke-width="0.75" stroke-miterlimit="10" d="M121.1,57.8c6.6,1.1,8.1,4.4,8.1,7.2
			c-0.2,3.2-0.8,4.7-6.1,3.8c-6-1-23.4-3.8-23.4-3.8l9.9-13.5"/>
		<g>
			<path fill="#FFFFFF" stroke="#000000" stroke-width="0.75" stroke-miterlimit="10" d="M94,68.7c-0.3,0.7,0.4,1.4,1,1l2.3-2.2
				l-1-1L94,68.7z"/>
			<polygon fill="#FFFFFF" stroke="#000000" stroke-width="0.75" stroke-miterlimit="10" points="165,5.7 159.9,0.5 97.8,61 
				97.7,61 95.3,65.9 97.8,68.6 102.8,66.2 102.8,66.2 			"/>
			<line fill="none" stroke="#000000" stroke-width="0.75" stroke-miterlimit="10" x1="97.8" y1="61" x2="102.8" y2="66.2"/>
		</g>
		<path fill="none" stroke="#000000" stroke-width="0.75" stroke-miterlimit="10" d="M99,47.7c0.8,1.1,1.4,3.2,0.7,4.7
			c-1.9,4-6.5,3.7-6.5,3.7"/>
		<path fill="#DADBDC" stroke="#000000" stroke-width="0.75" stroke-miterlimit="10" d="M162.1,77.9c0,0-36.9,11-30.9-25.7
			c-7.5,12.1-18.9,11-21.8,8c-0.8-0.6-3.6-2.9-0.2-6.2c3.3-3.2,9.1-9.3,9.1-9.3s5.8-5.9,9.7-9.8c3.9-3.9,7-2.2,8.4-1.3
			s11.3,7.3,11.3,7.3"/>
		<path fill="none" stroke="#000000" stroke-width="0.75" stroke-miterlimit="10" d="M116.9,46.7c2,2,1.5,5.5-0.9,8
			c-2.5,2.5-6.1,2.9-8,0.9"/>
	</g>
</g>
</svg>
