<?xml version="1.0" encoding="utf-8"?>
<!-- Generator: Adobe Illustrator 24.2.3, SVG Export Plug-In . SVG Version: 6.00 Build 0)  -->
<svg version="1.1" id="Layer_1" xmlns="http://www.w3.org/2000/svg" xmlns:xlink="http://www.w3.org/1999/xlink" x="0px" y="0px"
	 viewBox="0 0 108.6688 108.6688" enable-background="new 0 0 108.6688 108.6688" xml:space="preserve">
<g>
	<rect x="0.5" y="0.5" fill="#F1F2F2" width="107.6688" height="107.6688"/>
	<rect x="0.5" y="0.5" fill="none" width="107.6688" height="107.6688"/>
	<g>
		<defs>
			<rect id="SVGID_1_" x="0.5" y="0.5" width="107.6688" height="107.6688"/>
		</defs>
		<clipPath id="SVGID_2_">
			<use xlink:href="#SVGID_1_"  overflow="visible"/>
		</clipPath>
		<g clip-path="url(#SVGID_2_)">
			
				<rect x="-31.3202" y="68.4994" fill="#C9CACC" stroke="#000000" stroke-width="0.75" stroke-linecap="round" stroke-miterlimit="10" width="171.3093" height="57.6066"/>
			<g>
				
					<rect x="65.1708" y="39.7336" fill="#BCBEC0" stroke="#000000" stroke-width="0.75" stroke-linecap="round" stroke-linejoin="round" stroke-miterlimit="10" width="16.5269" height="28.7658"/>
				
					<rect x="55.0013" y="66.5668" fill="#BCBEC0" stroke="#000000" stroke-width="0.75" stroke-linecap="round" stroke-linejoin="round" stroke-miterlimit="10" width="36.8659" height="1.9326"/>
				
					<path fill="#BCBEC0" stroke="#000000" stroke-width="0.75" stroke-linecap="round" stroke-linejoin="round" stroke-miterlimit="10" d="
					M99.2041,58.7808H47.6645c-0.5523,0-1-0.4477-1-1V21.6863c0-0.5523,0.4477-1,1-1h51.5396c0.5523,0,1,0.4477,1,1v36.0945
					C100.2041,58.3331,99.7564,58.7808,99.2041,58.7808z"/>
				
					<rect x="58.9548" y="13.0792" transform="matrix(-1.836970e-16 1 -1 -1.836970e-16 110.9419 -35.9272)" fill="#FFFFFF" stroke="#000000" stroke-width="0.75" stroke-linecap="round" stroke-linejoin="round" stroke-miterlimit="10" width="28.9595" height="48.8564"/>
				<path fill="#C9CACC" d="M83.1652,28.5922l-2.945-2.001l-9.4415,13.8885c-1.5741-1.9206-3.9165-4.7823-3.9165-4.7823
					c-0.6239-0.7611-1.7448-0.8719-2.506-0.249c-0.7611,0.623-0.8719,1.7438-0.2489,2.505l6.9356,8.47L83.1652,28.5922"/>
			</g>
			
				<rect x="-31.3202" y="68.4994" fill="#FFFFFF" stroke="#000000" stroke-width="0.75" stroke-linecap="round" stroke-miterlimit="10" width="171.3093" height="9.6187"/>
			<path fill="#DADBDC" stroke="#000000" stroke-width="0.75" stroke-miterlimit="10" d="M16.7708,68.4994
				c0-3.7782,3.0436-6.8218,6.8218-6.8218s6.8218,3.0436,6.8218,6.8218H16.7708z"/>
			<path fill="#DADBDC" stroke="#000000" stroke-width="0.75" stroke-miterlimit="10" d="M46.4631,41.7601
				c-5.0377-0.7347-9.7605-5.6674-11.2298-12.3843c-1.8891-8.1862,1.5743-15.9526,7.8714-17.4219
				c6.0872-1.3644,12.6991,4.0931,14.5882,12.2793c1.8891,8.1862-1.5743,15.9526-7.8714,17.4219v0.1049
				c9.1308,0,20.9903,0.5248,21.4101,23.824v23.5016h-43.24V65.5841C28.4115,44.5938,37.9621,42.075,46.4631,41.7601z"/>
			<path fill="#C9CACC" stroke="#000000" stroke-width="0.75" stroke-miterlimit="10" d="M72.0307,79.4111H27.1926
				c-1.98,0-3.6-1.62-3.6-3.6V53.4244c0-1.98,1.62-3.6,3.6-3.6h44.8381c1.98,0,3.6,1.62,3.6,3.6v22.3867
				C75.6307,77.7911,74.0107,79.4111,72.0307,79.4111z"/>
			<path fill="#C9CACC" stroke="#000000" stroke-width="0.75" stroke-linecap="round" stroke-miterlimit="10" d="M75.6307,99.1339
				H23.5926v-6.4482c0-1.9882,1.6118-3.6,3.6-3.6h44.8381c1.9882,0,3.6,1.6118,3.6,3.6V99.1339z"/>
			
				<rect x="33.3442" y="99.1339" fill="#DADBDC" stroke="#000000" stroke-width="0.75" stroke-miterlimit="10" width="11.1444" height="26.7946"/>
			
				<rect x="54.5006" y="99.1339" fill="#DADBDC" stroke="#000000" stroke-width="0.75" stroke-miterlimit="10" width="11.1444" height="26.7946"/>
			
				<rect x="46.9354" y="99.1339" fill="#C9CACC" stroke="#000000" stroke-width="0.75" stroke-miterlimit="10" width="5.3525" height="22.0231"/>
			
				<rect x="44.9358" y="63.0374" fill="#C9CACC" stroke="#000000" stroke-width="0.75" stroke-miterlimit="10" width="9.3519" height="31.2499"/>
		</g>
		<use xlink:href="#SVGID_1_"  overflow="visible" fill="none" stroke="#000000" stroke-miterlimit="10"/>
	</g>
</g>
</svg>
