<?xml version="1.0" encoding="utf-8"?>
<!-- Generator: Adobe Illustrator 24.2.3, SVG Export Plug-In . SVG Version: 6.00 Build 0)  -->
<svg version="1.1" id="Layer_1" xmlns="http://www.w3.org/2000/svg" xmlns:xlink="http://www.w3.org/1999/xlink" x="0px" y="0px"
	 viewBox="0 0 108.6688 108.6688" enable-background="new 0 0 108.6688 108.6688" xml:space="preserve">
<g>
	<rect x="0.5" y="0.5" fill="#F1F2F2" width="107.6688" height="107.6688"/>
	<rect x="0.5" y="0.5" fill="none" width="107.6688" height="107.6688"/>
	<g>
		<g>
			<g>
				<g>
					<defs>
						<rect id="SVGID_1_" x="0.5" y="0.5" width="107.6688" height="107.6688"/>
					</defs>
					<clipPath id="SVGID_2_">
						<use xlink:href="#SVGID_1_"  overflow="visible"/>
					</clipPath>
					<g clip-path="url(#SVGID_2_)">
						<path fill="#FFFFFF" stroke="#000000" stroke-width="0.75" stroke-miterlimit="10" d="M79.8816,132.5816h-45.5v-56.3
							c0-13.4,10.8-24.2,24.2-24.2h20.1"/>
						<path fill="#FFFFFF" stroke="#000000" stroke-width="0.75" stroke-miterlimit="10" d="M26.0816,15.2816
							c-0.1,2.3-0.9,4.3-2.2,5.8c-1.7,1.9-4.1,3-7,2.9c-5.1-0.2-9.1-4.5-8.9-9.6"/>
						<path fill="#DADBDC" stroke="#000000" stroke-width="0.75" stroke-miterlimit="10" d="M23.6816,27.0816c0,0,2,1.4,2.5-0.5
							c0,0,0.6-10.9,0.2-11.6c-0.1-0.2-4.4-7.7-5.6-8.3c-1.2-0.7-14.9,2.2-14.9,2.2l-10.1-1.8"/>
						<path fill="#FFFFFF" stroke="#000000" stroke-width="0.75" stroke-miterlimit="10" d="M101.3816,76.2816v56.3h-44.6v-56.3
							c0-13.4,10-24.2,22.3-24.2S101.3816,62.8816,101.3816,76.2816z"/>
						
							<rect x="36.6816" y="78.9816" fill="#FFFFFF" stroke="#000000" stroke-width="0.75" stroke-miterlimit="10" width="17.6" height="53.6"/>
						
							<line fill="none" stroke="#000000" stroke-width="0.75" stroke-linejoin="round" stroke-miterlimit="10" x1="34.3816" y1="76.2816" x2="56.9816" y2="76.2816"/>
						
							<rect x="-3.3439" y="6.9022" transform="matrix(0.1781 -0.984 0.984 0.1781 -12.4767 11.2666)" fill="#DADBDC" width="7.6999" height="12.3998"/>
						<g>
							<g>
								<path d="M75.9246,81.0816v-4.125h-0.026l-1.689,2.531l-1.69-2.522h-0.028v4.116h-1.034v-5.842h0.955l1.796,2.663
									l1.795-2.663h0.955v5.842H75.9246z"/>
								<path d="M82.3876,81.0816l-0.482-1.305h-2.408l-0.49,1.305h-1.094l2.207-5.867h1.156l2.251,5.867H82.3876z M80.6976,76.2556
									h-0.018l-0.937,2.654h1.892L80.6976,76.2556z"/>
								<path d="M84.4806,81.0816v-5.842h1.069v5.842H84.4806z"/>
								<path d="M87.0376,81.0816v-5.842h1.078v4.94h2.46v0.902H87.0376z"/>
							</g>
							<g>
								<g id="g9832_1_" transform="matrix(6.5919542,0,0,6.5919542,307.14255,451.3374)">
									<path id="path9834_1_" d="M-35.7978-55.6088c0,0,1.73,0.355,1.765,0.361c0.398,0.07,0.385,0.147,0.385,0.147
										c0.279-0.001,0.313,0.01,0.362,0.051c0.146,0.122-0.092,0.483-0.092,0.483c-0.034,0.025-2.608,1.019-2.608,1.019h2.693
										l0.44-2.071h-2.943L-35.7978-55.6088z"/>
								</g>
								<g id="g9836_1_" transform="matrix(6.5919542,0,0,6.5919542,429.6527,410.55747)">
									<path id="path9838_1_" d="M-52.3688-48.7518c-0.039,0.019-0.141,0.03-0.189,0.034c-0.046,0.004-0.058,0.008-0.059,0.026
										c-0.001,0.016,0.007,0.025,0.073,0.025c0.151,0,0.423-0.057,0.505-0.031c0.043,0.014,0.009,0.091-0.027,0.193
										c-0.014,0.039,0.013,0.036,0.029,0.019s0.086-0.147,0.094-0.212c0.011-0.093-0.069-0.108-0.18-0.108h-0.176
										c-0.009,0-0.017,0.006-0.028,0.021C-52.3358-48.7728-52.3428-48.7648-52.3688-48.7518"/>
								</g>
								<g id="g9840_1_" transform="matrix(6.5919542,0,0,6.5919542,301.06345,422.81586)">
									<path id="path9842_1_" d="M-34.9758-50.8128l-0.338,1.592c0,0,1.035-0.508,1.162-0.573c0.26-0.133,0.618-0.31,0.95-0.423
										c0.063-0.021,0.334-0.105,0.491-0.133c0.061-0.011,0.087-0.021,0.086-0.033c-0.002-0.033-0.064-0.035-0.168-0.03
										c-0.317,0.015-0.926,0.257-1.101,0.349l-0.198-0.613h1.263c0.057-0.159-0.748-0.137-0.773-0.138h-1.374V-50.8128z"/>
								</g>
							</g>
						</g>
						<g>
							
								<rect x="10.1789" y="22.3172" transform="matrix(0.7512 0.6601 -0.6601 0.7512 33.8217 -17.1007)" fill="#FFFFFF" stroke="#000000" stroke-width="0.75" stroke-miterlimit="10" width="58.8318" height="27.9929"/>
							<polygon fill="#FFFFFF" points="48.9134,44.3556 30.5158,28.1893 30.5015,28.1768 30.489,28.1911 27.8363,31.2099 
								27.8238,31.2241 27.838,31.2367 46.2356,47.403 46.2499,47.4155 46.2623,47.4012 48.9151,44.3824 48.9276,44.3682 							"/>
							<polygon fill="none" stroke="#000000" stroke-width="0.25" points="48.9134,44.3556 30.5158,28.1893 30.5015,28.1768 
								30.489,28.1911 27.8363,31.2099 27.8238,31.2241 27.838,31.2367 46.2356,47.403 46.2499,47.4155 46.2623,47.4012 
								48.9151,44.3824 48.9276,44.3682 							"/>
							
								<rect x="55.0484" y="35.0336" transform="matrix(0.6599 -0.7513 0.7513 0.6599 -7.0673 54.5772)" stroke="#000000" stroke-width="0.25" width="3.4121" height="0.1235"/>
							
								<rect x="55.5043" y="35.4345" transform="matrix(0.6599 -0.7513 0.7513 0.6599 -7.2134 55.056)" stroke="#000000" stroke-width="0.25" width="3.4121" height="0.1235"/>
							
								<rect x="56.8206" y="36.5909" transform="matrix(0.6599 -0.7513 0.7513 0.6599 -7.6346 56.4383)" stroke="#000000" stroke-width="0.25" width="3.4121" height="0.1235"/>
							
								<rect x="57.5468" y="37.2295" transform="matrix(0.6599 -0.7513 0.7513 0.6599 -7.8674 57.2011)" stroke="#000000" stroke-width="0.25" width="3.4121" height="0.1235"/>
							
								<rect x="56.1194" y="35.975" transform="matrix(0.6602 -0.7511 0.7511 0.6602 -7.4171 55.6794)" stroke="#000000" stroke-width="0.25" width="3.4121" height="0.1234"/>
							
								<rect x="56.4758" y="36.2881" transform="matrix(0.6599 -0.7513 0.7513 0.6599 -7.5244 56.0763)" stroke="#000000" stroke-width="0.25" width="3.4121" height="0.1235"/>
							<g>
								<path d="M30.5291,31.5619c-0.1946-0.1711-0.216-0.3888-0.022-0.6096c0.1915-0.2179,0.4118-0.2284,0.6074-0.0566
									c0.1957,0.1718,0.2133,0.3898,0.021,0.6087C30.9415,31.7252,30.7228,31.732,30.5291,31.5619z M31.0234,30.9994
									c-0.1394-0.1226-0.2601-0.0691-0.3827,0.0704c-0.1216,0.1384-0.16,0.266-0.0205,0.3885
									c0.1394,0.1226,0.26,0.0673,0.3817-0.0712C31.1226,31.2496,31.1628,31.1219,31.0234,30.9994z"/>
								<path d="M31.6207,31.5499l-0.137,0.1559l0.2623,0.2306l-0.0952,0.1084l-0.2624-0.2305l-0.2407,0.2739l-0.1279-0.1123
									l0.5675-0.6458l0.4193,0.3684l-0.0944,0.1075L31.6207,31.5499z"/>
								<path d="M32.1832,32.0443l-0.137,0.1559l0.2624,0.2305l-0.0953,0.1085l-0.2623-0.2306l-0.2409,0.274l-0.1278-0.1124
									l0.5674-0.6457l0.4193,0.3683l-0.0945,0.1075L32.1832,32.0443z"/>
								<path d="M32.145,32.9647l0.5675-0.6458l0.1287,0.1132l-0.5674,0.6457L32.145,32.9647z"/>
								<path d="M32.7437,33.5097c-0.214-0.1881-0.1935-0.4086-0.0157-0.611c0.1693-0.1926,0.3995-0.2339,0.5999-0.0578
									c0.0939,0.0824,0.1375,0.1774,0.148,0.3119l-0.1488,0.0151c-0.0026-0.0967-0.0306-0.1624-0.0897-0.2144
									c-0.1142-0.1004-0.2423-0.0893-0.3767,0.0635c-0.1191,0.1356-0.1513,0.2738-0.0216,0.3878
									c0.061,0.0536,0.1402,0.0768,0.2402,0.0703l-0.0052,0.1464C32.9393,33.6266,32.8376,33.5921,32.7437,33.5097z"/>
								<path d="M33.1336,33.8334l0.5675-0.6458l0.1288,0.1132l-0.5675,0.6457L33.1336,33.8334z"/>
								<path d="M33.8927,34.5004l0.0711-0.1863l-0.2614-0.2297l-0.1766,0.0936l-0.1327-0.1166l0.8159-0.4326l0.1385,0.1216
									l-0.3183,0.8699L33.8927,34.5004z M34.1664,33.816l-0.002-0.0017l-0.34,0.1918l0.1974,0.1736L34.1664,33.816z"/>
								<path d="M34.1609,34.7361l0.5675-0.6457l0.1288,0.1131l-0.4722,0.5374l0.273,0.2399l-0.0952,0.1084L34.1609,34.7361z"/>
								<path d="M35.2715,35.712l-0.1336-0.1174l0.3507-0.8364l0.1355,0.1191l-0.2872,0.6295l0.001,0.0009l0.5855-0.3675
									l0.1345,0.1183L35.2715,35.712z"/>
								<path d="M35.8837,36.2671c-0.1946-0.171-0.216-0.3888-0.022-0.6096c0.1914-0.2178,0.4118-0.2284,0.6074-0.0566
									s0.2133,0.3899,0.021,0.6087C36.296,36.4304,36.0774,36.4373,35.8837,36.2671z M36.378,35.7046
									c-0.1394-0.1225-0.2601-0.0691-0.3827,0.0704c-0.1217,0.1385-0.16,0.2661-0.0206,0.3886s0.26,0.0673,0.3817-0.0713
									C36.4773,35.9548,36.5175,35.827,36.378,35.7046z"/>
								<path d="M37.0898,36.3592l-0.4714,0.5364l-0.1288-0.1132l0.4713-0.5364l-0.1821-0.1599l0.0962-0.1094l0.4938,0.4339
									L37.2728,36.52L37.0898,36.3592z"/>
								<path d="M36.9331,37.1721l0.5676-0.6458l0.4269,0.3752l-0.0944,0.1075l-0.2982-0.262l-0.1319,0.1501l0.2702,0.2374
									l-0.0961,0.1094l-0.2702-0.2374l-0.1523,0.1732l0.308,0.2705l-0.0928,0.1056L36.9331,37.1721z"/>
								<path d="M37.6931,37.4555l0.1012-0.1151l0.2605,0.2288l-0.1013,0.1152L37.6931,37.4555z"/>
								<path d="M38.2258,38.308l-0.2886-0.2536l0.5633-0.6409c0.0784,0.0534,0.165,0.1227,0.2395,0.1882
									c0.123,0.108,0.2408,0.2511,0.1082,0.4021c-0.0698,0.0794-0.1444,0.0842-0.228,0.0485l-0.0017,0.0019
									c0.0667,0.0861,0.0674,0.1811-0.0152,0.275C38.4945,38.4532,38.3681,38.433,38.2258,38.308z M38.4271,37.9753
									c-0.0397-0.0349-0.0793-0.068-0.1111-0.0942l-0.1685,0.1916c0.0351,0.0344,0.0631,0.059,0.1077,0.0981
									c0.0833,0.0732,0.153,0.1207,0.2304,0.0326C38.5699,38.1076,38.491,38.0314,38.4271,37.9753z M38.6552,37.7022
									c-0.03-0.0265-0.0821-0.0688-0.1067-0.0836l-0.1497,0.1704c0.0283,0.0284,0.0582,0.0547,0.1038,0.0946
									c0.0852,0.0749,0.1415,0.0968,0.2077,0.0213C38.7655,37.842,38.75,37.7855,38.6552,37.7022z"/>
								<path d="M39.1138,38.637L38.89,38.8916l-0.1288-0.1131l0.2212-0.2518l0.1101-0.6017l0.1471,0.1294l-0.0911,0.4141
									l0.4009-0.1418l0.1413,0.1242L39.1138,38.637z"/>
								<path d="M39.3527,38.9139l0.1013-0.1152l0.2605,0.2289l-0.1013,0.1152L39.3527,38.9139z"/>
								<path d="M40.0916,39.9475l0.3863-0.4395l-0.003-0.0026l-0.4195,0.1084l0.0528-0.4272l-0.0029-0.0025l-0.3845,0.4377
									l-0.124-0.1089l0.5675-0.6458l0.1133,0.0996l-0.0579,0.4603l0.4491-0.1166l0.1142,0.1004l-0.5674,0.6457L40.0916,39.9475z"
									/>
								<path d="M40.848,40.612l0.0711-0.1863l-0.2615-0.2297l-0.1766,0.0936l-0.1327-0.1166l0.816-0.4325l0.1384,0.1217
									l-0.3183,0.8698L40.848,40.612z M41.1215,39.9276l-0.0019-0.0017l-0.3401,0.1919l0.1975,0.1735L41.1215,39.9276z"/>
								<path d="M41.1161,40.8478l0.5675-0.6458l0.1287,0.1132l-0.5675,0.6457L41.1161,40.8478z"/>
								<path d="M41.4356,41.1286l0.5675-0.6458l0.1288,0.1132l-0.4721,0.5373l0.273,0.24l-0.0953,0.1084L41.4356,41.1286z"/>
								<path d="M42.5414,42.1001l-0.2885-0.2534l0.5632-0.641c0.0783,0.0535,0.1651,0.1227,0.2395,0.1883
									c0.123,0.108,0.2409,0.2511,0.1082,0.4021c-0.0698,0.0794-0.1443,0.0842-0.228,0.0485l-0.0017,0.0019
									c0.0668,0.0862,0.0675,0.1811-0.0151,0.275C42.8102,42.2454,42.6838,42.2252,42.5414,42.1001z M42.7428,41.7675
									c-0.0397-0.0348-0.0792-0.0679-0.111-0.0942l-0.1685,0.1917c0.035,0.0342,0.0632,0.0589,0.1077,0.0981
									c0.0832,0.0732,0.153,0.1206,0.2304,0.0325C42.8856,41.8999,42.8067,41.8237,42.7428,41.7675z M42.9708,41.4943
									c-0.03-0.0264-0.082-0.0686-0.1068-0.0835l-0.1497,0.1704c0.0283,0.0283,0.0583,0.0546,0.1038,0.0946
									c0.0852,0.0749,0.1414,0.0968,0.2078,0.0214C43.0812,41.6343,43.0658,41.5778,42.9708,41.4943z"/>
								<path d="M43.3635,42.8225l0.0711-0.1863l-0.2615-0.2297l-0.1766,0.0936l-0.1327-0.1166l0.816-0.4325l0.1384,0.1216
									l-0.3183,0.8699L43.3635,42.8225z M43.6371,42.1382l-0.0019-0.0017l-0.3401,0.1918l0.1974,0.1736L43.6371,42.1382z"/>
								<path d="M43.6317,43.0582l0.5674-0.6457l0.1288,0.1131l-0.4722,0.5373l0.273,0.24l-0.0952,0.1084L43.6317,43.0582z"/>
								<path d="M44.1778,43.5381l0.5675-0.6458l0.1288,0.1132l-0.4721,0.5373l0.273,0.24l-0.0953,0.1084L44.1778,43.5381z"/>
								<path d="M44.9981,44.2761c-0.1946-0.171-0.216-0.3887-0.0219-0.6095c0.1913-0.2178,0.4117-0.2284,0.6073-0.0566
									c0.1956,0.1719,0.2133,0.3899,0.021,0.6087C45.4105,44.4394,45.1917,44.4463,44.9981,44.2761z M45.4924,43.7135
									c-0.1394-0.1225-0.2602-0.069-0.3826,0.0705c-0.1217,0.1384-0.1601,0.266-0.0206,0.3885s0.26,0.0673,0.3817-0.0712
									C45.5916,43.9638,45.6318,43.8361,45.4924,43.7135z"/>
								<path d="M46.2042,44.3682l-0.4713,0.5364l-0.1288-0.1132l0.4713-0.5363l-0.1821-0.16l0.0961-0.1094l0.4939,0.4339
									l-0.0961,0.1094L46.2042,44.3682z"/>
							</g>
							<line fill="none" stroke="#000000" stroke-width="0.0761" x1="26.8797" y1="9.5255" x2="39.1828" y2="20.3363"/>
							<line fill="none" stroke="#000000" stroke-width="0.0761" x1="25.9788" y1="10.5506" x2="38.2818" y2="21.3616"/>
							<line fill="none" stroke="#000000" stroke-width="0.0761" x1="25.078" y1="11.5759" x2="37.381" y2="22.3868"/>
							
								<line fill="none" stroke="#BCBEC0" stroke-width="0.5" stroke-miterlimit="10" x1="65.3535" y1="42.6587" x2="68.1347" y2="45.1049"/>
							<line fill="none" stroke="#BCBEC0" stroke-miterlimit="10" x1="23.7772" y1="13.185" x2="32.0101" y2="20.4263"/>
							
								<line fill="none" stroke="#BCBEC0" stroke-width="0.5" stroke-miterlimit="10" x1="64.6402" y1="43.4696" x2="67.4214" y2="45.9158"/>
							
								<line fill="none" stroke="#BCBEC0" stroke-width="0.5" stroke-miterlimit="10" x1="64.4676" y1="44.7561" x2="66.0894" y2="46.1826"/>
							
								<line fill="none" stroke="#BCBEC0" stroke-width="0.5" stroke-miterlimit="10" x1="62.7381" y1="45.6322" x2="65.5194" y2="48.0784"/>
							
								<line fill="none" stroke="#BCBEC0" stroke-width="0.5" stroke-miterlimit="10" x1="12.3257" y1="26.0978" x2="18.6875" y2="31.6933"/>
							
								<line fill="none" stroke="#BCBEC0" stroke-width="0.5" stroke-miterlimit="10" x1="11.6125" y1="26.9088" x2="17.9742" y2="32.5043"/>
							
								<line fill="none" stroke="#BCBEC0" stroke-width="0.5" stroke-miterlimit="10" x1="10.8992" y1="27.7197" x2="15.6391" y2="31.8887"/>
							
								<line fill="none" stroke="#BCBEC0" stroke-width="0.5" stroke-miterlimit="10" x1="62.5655" y1="46.9186" x2="64.1875" y2="48.3451"/>
							<g>
								
									<line fill="none" stroke="#BCBEC0" stroke-width="0.5" stroke-miterlimit="10" x1="32.0664" y1="38.7831" x2="38.4281" y2="44.3787"/>
								
									<line fill="none" stroke="#BCBEC0" stroke-width="0.5" stroke-miterlimit="10" x1="31.3531" y1="39.594" x2="37.7149" y2="45.1896"/>
								
									<line fill="none" stroke="#BCBEC0" stroke-width="0.5" stroke-miterlimit="10" x1="30.6398" y1="40.405" x2="35.3797" y2="44.574"/>
							</g>
							<g>
								<g>
									<path fill="#BCBEC0" d="M40.9557,24.9403c0.6706-0.2598,1.5082,0.0601,2.0139,0.6156
										c0.5043,0.5473,0.8593,1.1462,1.2538,1.6802c0.3877,0.5192,0.825,1.0485,1.2772,1.3514
										c0.4547,0.2944,1.0368,0.4184,1.6956,0.4648c0.653,0.0819,1.385,0.0578,2.1909,0.3889
										c0.3987,0.1852,0.7689,0.4914,0.9928,0.9211c0.2342,0.4411,0.2077,0.9248,0.1413,1.2923
										c-0.135,0.7489-0.4194,1.3223-0.2202,1.8625c0.2367,0.557,0.7894,1.0331,1.3993,1.3211
										c-0.6709-0.11-1.3698-0.4498-1.8169-1.093c-0.2446-0.3379-0.3067-0.7767-0.3018-1.1513
										c0.0002-0.3792,0.0609-0.726,0.067-1.0323c0.0063-0.3087-0.0372-0.5507-0.1479-0.7167
										c-0.1169-0.1705-0.3096-0.3196-0.5423-0.4043c-0.483-0.1884-1.1621-0.1927-1.8702-0.2518
										c-0.7032-0.0725-1.5208-0.219-2.21-0.7171c-0.6468-0.5328-1.0565-1.1196-1.4063-1.7564
										c-0.3545-0.6197-0.604-1.2682-0.9403-1.8139C42.2374,25.3407,41.6641,24.9565,40.9557,24.9403z"/>
								</g>
								<g>
									<path fill="#BCBEC0" d="M38.5807,25.4168c0.7129-0.1325,1.4363-0.1867,2.2059-0.0553
										c0.3797,0.0748,0.7796,0.264,1.0909,0.5395c0.1575,0.1333,0.2906,0.281,0.4097,0.4191
										c0.1321,0.1577,0.25,0.3317,0.3487,0.5056c0.3816,0.7142,0.5701,1.3101,0.9865,1.7842
										c0.2923,0.3739,0.927,0.5551,1.6059,0.7394c0.671,0.1883,1.3867,0.3696,2.0973,0.6769
										c0.7154,0.3033,1.4147,0.8566,1.816,1.5457c0.2167,0.346,0.3743,0.7911,0.3509,1.2184
										c-0.0088,0.4259-0.1375,0.7718-0.1735,1.0821c-0.0791,0.5769,0.6729,1.0247,1.3264,1.2226
										c-0.3583-0.0193-0.7265-0.0779-1.0699-0.2495c-0.3422-0.1481-0.6867-0.5038-0.7168-0.9626
										c-0.0519-0.4049,0.0039-0.764-0.052-1.0539c-0.0493-0.2902-0.1832-0.5295-0.371-0.7672
										c-0.7896-1.0141-2.1069-1.2176-3.516-1.6195c-0.3498-0.1044-0.7081-0.2127-1.0799-0.379
										c-0.1843-0.0855-0.376-0.1717-0.5628-0.319c-0.1837-0.1224-0.3825-0.359-0.4799-0.4971
										c-0.4978-0.6456-0.7108-1.4558-0.9396-2.0259c-0.0633-0.1443-0.1336-0.2749-0.2176-0.4015
										c-0.0984-0.1447-0.19-0.2758-0.2853-0.3945c-0.188-0.2368-0.4311-0.4073-0.734-0.537
										C40.0168,25.6083,39.2901,25.535,38.5807,25.4168z"/>
								</g>
								<g>
									<path fill="#BCBEC0" d="M38.8682,26.2071c0.6622-0.2294,1.5202-0.1475,2.1457,0.3777
										c0.2893,0.2437,0.5581,0.558,0.7402,0.9018c0.1822,0.344,0.3055,0.6763,0.4483,0.9703
										c0.1439,0.2954,0.2958,0.5707,0.4757,0.8354c0.0861,0.1308,0.19,0.2653,0.2844,0.3816
										c0.092,0.0969,0.1802,0.1951,0.294,0.2726c0.4259,0.3373,1.043,0.5259,1.7016,0.6845
										c0.6553,0.1793,1.3734,0.3245,2.0896,0.6772c0.6887,0.3503,1.4231,0.9961,1.5331,1.9252
										c0.0662,0.8826-0.1944,1.4301,0.0095,2.0392c0.1668,0.6047,0.6202,1.1565,1.2889,1.3969
										c-0.7177-0.0027-1.4234-0.5057-1.7753-1.1902c-0.4204-0.6932-0.2791-1.601-0.4119-2.0886
										c-0.1317-0.4737-0.5721-0.8706-1.1209-1.0974c-0.543-0.2581-1.2093-0.3821-1.8983-0.5581
										c-0.6784-0.1918-1.4484-0.3965-2.1068-0.9557c-0.1645-0.1358-0.3024-0.3032-0.4344-0.4738
										c-0.1134-0.1628-0.2125-0.3127-0.3073-0.4798c-0.1917-0.3251-0.3529-0.6757-0.4684-1.0274
										c-0.2367-0.7206-0.3505-1.2877-0.7813-1.7685C40.2208,26.5372,39.576,26.2597,38.8682,26.2071z"/>
								</g>
								<polygon points="42.5005,24.7583 42.4556,24.9084 42.5537,25.0305 42.397,25.0342 42.3112,25.1654 42.2593,25.0174 
									42.108,24.9763 42.2327,24.8813 42.225,24.7247 42.3539,24.8139 								"/>
								<polygon points="41.5419,26.1183 41.4969,26.2685 41.5951,26.3905 41.4383,26.3943 41.3525,26.5255 41.3006,26.3775 
									41.1494,26.3364 41.274,26.2414 41.2663,26.0847 41.3953,26.174 								"/>
								<polygon points="40.4758,25.1267 40.431,25.2768 40.5291,25.399 40.3724,25.4026 40.2865,25.5337 40.2347,25.3858 
									40.0834,25.3447 40.208,25.2497 40.2004,25.0931 40.3293,25.1823 								"/>
								<polygon points="40.1593,27.6044 40.1144,27.7545 40.2127,27.8767 40.0558,27.8804 39.97,28.0114 39.9182,27.8635 
									39.7669,27.8224 39.8915,27.7274 39.8839,27.5708 40.0128,27.66 								"/>
								<polygon points="43.1907,28.7636 43.1457,28.9137 43.2439,29.0358 43.0872,29.0396 43.0014,29.1707 42.9496,29.0229 
									42.7983,28.9816 42.9228,28.8867 42.9152,28.7301 43.0442,28.8192 								"/>
								<polygon points="43.4963,31.0003 43.4513,31.1504 43.5495,31.2725 43.3927,31.2763 43.3069,31.4073 43.2551,31.2595 
									43.1038,31.2184 43.2284,31.1234 43.2208,30.9668 43.3498,31.0559 								"/>
								<polygon points="46.0838,28.675 46.0389,28.8252 46.137,28.9473 45.9803,28.951 45.8945,29.0821 45.8427,28.9343 
									45.6914,28.8932 45.8159,28.7981 45.8083,28.6415 45.9373,28.7307 								"/>
								<polygon points="47.1547,30.2545 47.1098,30.4047 47.208,30.5268 47.0512,30.5306 46.9654,30.6616 46.9136,30.5137 
									46.7623,30.4726 46.8868,30.3775 46.8792,30.221 47.0082,30.3102 								"/>
								<polygon points="49.3343,29.6554 49.2893,29.8055 49.3875,29.9277 49.2307,29.9314 49.1449,30.0625 49.093,29.9147 
									48.9417,29.8734 49.0664,29.7785 49.0588,29.6219 49.1877,29.711 								"/>
								<polygon points="49.1494,31.0423 49.1044,31.1925 49.2026,31.3146 49.0458,31.3183 48.96,31.4494 48.9081,31.3016 
									48.7569,31.2605 48.8815,31.1654 48.8739,31.0088 49.0028,31.0979 								"/>
								<polygon points="50.0189,31.8513 49.974,32.0014 50.0721,32.1236 49.9154,32.1273 49.8296,32.2584 49.7777,32.1105 
									49.6264,32.0694 49.751,31.9744 49.7434,31.8178 49.8724,31.9069 								"/>
								<polygon points="49.4901,34.6239 49.4453,34.7741 49.5434,34.8962 49.3867,34.9 49.3008,35.031 49.249,34.8832 
									49.0977,34.842 49.2222,34.747 49.2146,34.5904 49.3436,34.6796 								"/>
								<polygon points="47.5247,33.8731 47.4798,34.0232 47.578,34.1454 47.4212,34.1491 47.3354,34.2802 47.2836,34.1323 
									47.1323,34.0912 47.2569,33.9961 47.2492,33.8396 47.3782,33.9287 								"/>
							</g>
						</g>
						<g>
							<path fill="#DADBDC" stroke="#000000" stroke-width="0.75" stroke-miterlimit="10" d="M-6.5184,17.3816l9.5,0.8
								c0,0,9.8,8.2,15.3-0.5c1,4.7,4.8,5.6,6,5c0.3-0.1,1.5-0.5,0.8-1.9s-1.9-4-1.9-4s-1.9-4.2-2.7-5.8s-2-1.5-2.5-1.3
								c-0.5,0.1-4.5,0.2-4.5,0.2"/>
							<path fill="none" stroke="#000000" stroke-width="0.75" stroke-miterlimit="10" d="M23.5816,17.4816
								c-0.8,0.4-1.1,1.6-0.6,2.6c0.5,1.1,1.6,1.6,2.4,1.2"/>
						</g>
					</g>
				</g>
			</g>
		</g>
	</g>
	<rect x="0.5" y="0.5" fill="none" stroke="#000000" stroke-miterlimit="10" width="107.6688" height="107.6688"/>
</g>
</svg>
