<?xml version="1.0" encoding="utf-8"?>
<!-- Generator: Adobe Illustrator 24.2.3, SVG Export Plug-In . SVG Version: 6.00 Build 0)  -->
<svg version="1.1" id="Layer_1" xmlns="http://www.w3.org/2000/svg" xmlns:xlink="http://www.w3.org/1999/xlink" x="0px" y="0px"
	 viewBox="0 0 108.6688 108.6688" enable-background="new 0 0 108.6688 108.6688" xml:space="preserve">
<g>
	<rect x="0.5" y="0.5" fill="#F1F2F2" width="107.6688" height="107.6688"/>
	<rect x="0.5" y="0.5" fill="none" width="107.6688" height="107.6688"/>
	<rect x="0.5" y="0.5" fill="none" width="107.6688" height="107.6688"/>
	<g>
		<g>
			<g>
				<g>
					<g>
						<defs>
							<rect id="SVGID_1_" x="0.5" y="0.5" width="107.6688" height="107.6688"/>
						</defs>
						<clipPath id="SVGID_2_">
							<use xlink:href="#SVGID_1_"  overflow="visible"/>
						</clipPath>
						<g clip-path="url(#SVGID_2_)">
							<g>
								<polygon fill="#FFFFFF" stroke="#000000" stroke-width="0.75" stroke-miterlimit="10" points="74.8816,135.5816 
									30.2816,135.5816 30.2816,79.2816 24.3816,73.2816 24.3816,51.0816 74.8816,51.0816 								"/>
								<g>
									<polygon fill="#FFFFFF" stroke="#000000" stroke-width="0.75" stroke-miterlimit="10" points="102.1816,135.5816 
										61.1816,135.5816 61.1816,79.2816 55.2816,73.2816 55.2816,51.0816 102.1816,51.0816 									"/>
									<g>
										<path d="M72.5256,84.2146c-1.105,0-1.733-0.672-1.733-1.863c0-1.171,0.623-1.864,1.733-1.864
											c1.115,0,1.733,0.683,1.733,1.864C74.2586,83.5426,73.6306,84.2146,72.5256,84.2146z M72.5256,81.0186
											c-0.818,0-1.046,0.558-1.046,1.333c0,0.769,0.233,1.332,1.046,1.332c0.817,0,1.045-0.563,1.045-1.332
											C73.5706,81.5816,73.3426,81.0186,72.5256,81.0186z"/>
										<path d="M75.7416,81.0996v0.932h1.473v0.558h-1.473v1.57h-0.656v-3.613h2.286v0.553H75.7416z"/>
										<path d="M78.7126,81.0996v0.932h1.473v0.558h-1.473v1.57h-0.656v-3.613h2.286v0.553H78.7126z"/>
										<path d="M81.0266,84.1596v-3.613h0.661v3.613H81.0266z"/>
										<path d="M84.2186,84.2196c-1.159,0-1.706-0.742-1.706-1.885c0-1.051,0.574-1.848,1.706-1.848
											c0.509,0,0.915,0.174,1.316,0.553l-0.401,0.428c-0.287-0.298-0.558-0.428-0.888-0.428c-0.656,0-1.046,0.412-1.046,1.3
											c0,0.759,0.276,1.333,1.035,1.333c0.341,0,0.66-0.141,0.964-0.439l0.358,0.439
											C85.1446,84.0516,84.7226,84.2196,84.2186,84.2196z"/>
										<path d="M86.2096,84.1596v-3.613h0.661v3.613H86.2096z"/>
										<path d="M90.2306,84.1596l-0.298-0.807h-1.49l-0.304,0.807h-0.677l1.365-3.629h0.715l1.393,3.629H90.2306z
											 M89.1846,81.1756h-0.011l-0.58,1.642h1.171L89.1846,81.1756z"/>
										<path d="M91.5276,84.1596v-3.613h0.667v3.056h1.521v0.558h-2.188V84.1596z"/>
										<path d="M74.3716,89.6596h-1.577v-3.586c0.374-0.043,0.835-0.07,1.246-0.07c0.667,0,1.431,0.114,1.431,0.97
											c0,0.428-0.223,0.666-0.58,0.78v0.016c0.45,0.087,0.721,0.391,0.721,0.91
											C75.6116,89.3406,75.1836,89.6596,74.3716,89.6596z M74.0846,88.0296c-0.244,0-0.45,0-0.634,0.011v1.132
											c0.222,0.011,0.373,0.011,0.628,0.011c0.487,0,0.867-0.043,0.867-0.558C74.9456,88.0456,74.4676,88.0296,74.0846,88.0296z
											 M74.0466,86.5136c-0.168,0-0.45,0.011-0.591,0.026v1.019c0.179,0.011,0.357,0.011,0.612,0.011
											c0.487,0,0.753-0.081,0.753-0.542C74.8206,86.6376,74.5766,86.5136,74.0466,86.5136z"/>
										<path d="M78.7896,89.6596l-0.298-0.807h-1.49l-0.304,0.807h-0.677l1.365-3.629h0.715l1.393,3.629H78.7896z
											 M77.7436,86.6756h-0.011l-0.58,1.642h1.171L77.7436,86.6756z"/>
										<path d="M80.0866,89.6596v-3.613h0.667v3.056h1.521v0.558h-2.188V89.6596z"/>
										<path d="M82.9926,89.6596v-3.613h0.667v3.056h1.521v0.558h-2.188V89.6596z"/>
										<path d="M87.2366,89.7146c-1.105,0-1.733-0.672-1.733-1.863c0-1.171,0.623-1.864,1.733-1.864
											c1.115,0,1.733,0.683,1.733,1.864C88.9696,89.0426,88.3406,89.7146,87.2366,89.7146z M87.2366,86.5186
											c-0.818,0-1.046,0.558-1.046,1.333c0,0.769,0.233,1.332,1.046,1.332c0.817,0,1.045-0.563,1.045-1.332
											C88.2816,87.0816,88.0536,86.5186,87.2366,86.5186z"/>
										<path d="M90.9236,86.6106v3.05h-0.666v-3.05h-1.013v-0.564h2.697v0.564H90.9236z"/>
										<path d="M70.1836,95.1596h-1.187v-3.586c0.331-0.038,0.753-0.064,1.187-0.064c1.094,0,1.793,0.596,1.793,1.825
											C71.9766,94.4826,71.3646,95.1596,70.1836,95.1596z M70.1996,92.0236c-0.173,0-0.373,0.011-0.541,0.026v2.579
											c0.173,0.005,0.319,0.005,0.449,0.005c0.759,0,1.197-0.314,1.197-1.316C71.3046,92.7116,71.1156,92.0236,70.1996,92.0236z
											"/>
										<path d="M74.8556,95.1596l-0.492-1.262c-0.049-0.13-0.104-0.168-0.244-0.168h-0.661v1.43h-0.661v-3.586
											c0.401-0.043,0.786-0.064,1.187-0.064c0.721,0,1.463,0.184,1.463,1.072c0,0.449-0.162,0.802-0.617,0.98v0.005
											c0.07,0.027,0.119,0.125,0.146,0.195l0.574,1.397h-0.695V95.1596z M74.0106,92.0236c-0.195,0-0.363,0.016-0.553,0.037
											v1.144h0.64c0.417,0,0.704-0.114,0.704-0.58C74.8016,92.1156,74.4336,92.0236,74.0106,92.0236z"/>
										<path d="M77.8606,95.2146c-1.105,0-1.733-0.672-1.733-1.863c0-1.171,0.623-1.864,1.733-1.864
											c1.115,0,1.733,0.683,1.733,1.864C79.5936,94.5426,78.9656,95.2146,77.8606,95.2146z M77.8606,92.0186
											c-0.818,0-1.046,0.558-1.046,1.333c0,0.769,0.233,1.332,1.046,1.332c0.817,0,1.045-0.563,1.045-1.332
											C78.9056,92.5816,78.6776,92.0186,77.8606,92.0186z"/>
										<path d="M81.8446,93.8386h-0.768v1.321h-0.656v-3.586c0.325-0.038,0.78-0.064,1.22-0.064c0.796,0,1.457,0.243,1.457,1.137
											C83.0966,93.3836,82.7336,93.8386,81.8446,93.8386z M81.6396,92.0346c-0.18,0-0.353,0.005-0.563,0.026v1.257h0.611
											c0.444,0,0.759-0.065,0.759-0.649C82.4466,92.1866,82.2026,92.0346,81.6396,92.0346z"/>
										<path d="M86.9036,95.1596h-1.577v-3.586c0.374-0.043,0.835-0.07,1.246-0.07c0.667,0,1.431,0.114,1.431,0.97
											c0,0.428-0.223,0.666-0.58,0.78v0.016c0.45,0.087,0.721,0.391,0.721,0.91
											C88.1436,94.8406,87.7156,95.1596,86.9036,95.1596z M86.6166,93.5296c-0.244,0-0.45,0-0.634,0.011v1.132
											c0.222,0.011,0.373,0.011,0.628,0.011c0.487,0,0.867-0.043,0.867-0.558C87.4776,93.5456,87.0006,93.5296,86.6166,93.5296z
											 M86.5786,92.0136c-0.168,0-0.45,0.011-0.591,0.026v1.019c0.179,0.011,0.357,0.011,0.612,0.011
											c0.487,0,0.753-0.081,0.753-0.542C87.3526,92.1376,87.1086,92.0136,86.5786,92.0136z"/>
										<path d="M90.5736,95.2146c-1.105,0-1.733-0.672-1.733-1.863c0-1.171,0.623-1.864,1.733-1.864
											c1.115,0,1.733,0.683,1.733,1.864C92.3066,94.5426,91.6776,95.2146,90.5736,95.2146z M90.5736,92.0186
											c-0.818,0-1.046,0.558-1.046,1.333c0,0.769,0.233,1.332,1.046,1.332c0.817,0,1.045-0.563,1.045-1.332
											C91.6186,92.5816,91.3906,92.0186,90.5736,92.0186z"/>
										<path d="M94.9906,95.1596l-0.812-1.332h-0.005l-0.818,1.332h-0.764l1.208-1.88l-1.072-1.733h0.774l0.698,1.241h0.006
											l0.721-1.241h0.764l-1.105,1.782l1.17,1.831H94.9906z"/>
									</g>
								</g>
								<polygon fill="#FFFFFF" stroke="#000000" stroke-width="0.75" stroke-miterlimit="10" points="37.6816,97.0816 
									37.6816,78.9816 32.0816,73.2816 32.0816,51.0816 47.8816,51.0816 47.8816,73.2816 54.1816,79.6816 54.1816,97.0816 
																	"/>
								
									<line fill="none" stroke="#000000" stroke-width="0.75" stroke-miterlimit="10" x1="37.6816" y1="78.9816" x2="37.6816" y2="51.0816"/>
								<rect x="37.6816" y="62.6816" stroke="#000000" stroke-width="0.75" stroke-miterlimit="10" width="10.1" height="2.3"/>
								
									<line fill="none" stroke="#000000" stroke-width="0.75" stroke-miterlimit="10" x1="37.8816" y1="73.2816" x2="47.8816" y2="73.2816"/>
								<polyline fill="#FFFFFF" stroke="#000000" stroke-width="0.75" stroke-miterlimit="10" points="42.7816,73.2816 
									37.8816,89.2816 54.1816,89.2816 								"/>
								
									<line fill="none" stroke="#000000" stroke-width="0.75" stroke-miterlimit="10" x1="24.3816" y1="73.2816" x2="32.0816" y2="73.2816"/>
								
									<line fill="none" stroke="#000000" stroke-width="0.75" stroke-miterlimit="10" x1="30.2816" y1="79.2816" x2="37.4816" y2="79.2816"/>
								
									<line fill="none" stroke="#000000" stroke-width="0.75" stroke-miterlimit="10" x1="47.5816" y1="73.2816" x2="55.3816" y2="73.2816"/>
								
									<line fill="none" stroke="#000000" stroke-width="0.75" stroke-miterlimit="10" x1="53.5816" y1="79.2816" x2="60.7816" y2="79.2816"/>
							</g>
							<g>
								<path fill="#FFFFFF" stroke="#000000" stroke-width="0.75" stroke-miterlimit="10" d="M20.5816,19.0816
									c0.6,2.2,0.3,4.3-0.5,6.2c-1.1,2.3-3.1,4.1-5.9,4.8c-5,1.2-10-1.8-11.2-6.7"/>
								<path fill="#DADBDC" stroke="#000000" stroke-width="0.75" stroke-miterlimit="10" d="M21.5816,31.0816c0,0,2.4,0.8,2.2-1.2
									c0,0-2.4-10.7-3-11.2c-0.2-0.2-6.3-6.1-7.7-6.4c-1.3-0.3-13.6,6.3-13.6,6.3l-10.3,1.1"/>
								
									<rect x="-10.8184" y="20.1804" transform="matrix(0.9948 -0.1018 0.1018 0.9948 -2.4703 -0.3453)" fill="#DADBDC" width="12.3999" height="7.7"/>
								<g>
									
										<rect x="9.8717" y="21.5175" transform="matrix(0.9035 0.4285 -0.4285 0.9035 19.0092 -13.4099)" fill="#FFFFFF" stroke="#000000" stroke-width="0.75" stroke-miterlimit="10" width="58.8318" height="27.9929"/>
									<polygon fill="#FFFFFF" points="50.4557,40.6891 28.3272,30.1938 28.3101,30.1857 28.302,30.2028 26.5798,33.8338 
										26.5717,33.8509 26.5888,33.8591 48.7173,44.3544 48.7344,44.3625 48.7425,44.3454 50.4647,40.7144 50.4728,40.6973 
																			"/>
									<polygon fill="none" stroke="#000000" stroke-width="0.25" points="50.4557,40.6891 28.3272,30.1938 28.3101,30.1857 
										28.302,30.2028 26.5798,33.8338 26.5717,33.8509 26.5888,33.8591 48.7173,44.3544 48.7344,44.3625 48.7425,44.3454 
										50.4647,40.7144 50.4728,40.6973 									"/>
									
										<rect x="53.7477" y="29.5704" transform="matrix(0.4283 -0.9036 0.9036 0.4283 4.9249 67.049)" stroke="#000000" stroke-width="0.25" width="3.4121" height="0.1235"/>
									
										<rect x="54.2961" y="29.8307" transform="matrix(0.4283 -0.9036 0.9036 0.4283 5.0032 67.6934)" stroke="#000000" stroke-width="0.25" width="3.4121" height="0.1235"/>
									
										<rect x="55.8793" y="30.5814" transform="matrix(0.4283 -0.9036 0.9036 0.4283 5.2299 69.5532)" stroke="#000000" stroke-width="0.25" width="3.4121" height="0.1235"/>
									
										<rect x="56.7529" y="30.9961" transform="matrix(0.4283 -0.9036 0.9036 0.4283 5.3546 70.5796)" stroke="#000000" stroke-width="0.25" width="3.4121" height="0.1235"/>
									
										<rect x="55.0359" y="30.1817" transform="matrix(0.4286 -0.9035 0.9035 0.4286 5.0958 68.5446)" stroke="#000000" stroke-width="0.25" width="3.4121" height="0.1234"/>
									
										<rect x="55.4646" y="30.3849" transform="matrix(0.4283 -0.9036 0.9036 0.4283 5.1704 69.0661)" stroke="#000000" stroke-width="0.25" width="3.4121" height="0.1235"/>
									<g>
										<path d="M29.2658,33.4332c-0.2341-0.1111-0.3144-0.3146-0.1885-0.5801c0.1243-0.2621,0.3333-0.3327,0.5685-0.2211
											c0.2353,0.1115,0.3121,0.3163,0.1873,0.5795C29.7072,33.477,29.4987,33.5436,29.2658,33.4332z M29.5867,32.7566
											c-0.1677-0.0796-0.2691,0.005-0.3487,0.1727c-0.0789,0.1665-0.0808,0.2997,0.0869,0.3792
											c0.1677,0.0796,0.2685-0.0067,0.3475-0.1732C29.7508,32.9699,29.7544,32.8361,29.5867,32.7566z"/>
										<path d="M30.3122,33.122l-0.0889,0.1875l0.3155,0.1497l-0.0618,0.1304L30.1614,33.44l-0.1563,0.3295l-0.1538-0.0729
											l0.3684-0.7768l0.5043,0.2392l-0.0613,0.1293L30.3122,33.122z"/>
										<path d="M30.9888,33.443l-0.0889,0.1875l0.3156,0.1496l-0.0619,0.1305l-0.3155-0.1497l-0.1564,0.3296l-0.1537-0.073
											l0.3684-0.7767l0.5043,0.2391l-0.0614,0.1293L30.9888,33.443z"/>
										<path d="M31.2047,34.3385l0.3684-0.7768l0.1548,0.0735l-0.3684,0.7767L31.2047,34.3385z"/>
										<path d="M31.93,34.6982c-0.2574-0.1221-0.2982-0.3398-0.1828-0.5832c0.1099-0.2317,0.3199-0.3346,0.561-0.2203
											c0.1129,0.0535,0.1809,0.1329,0.2279,0.2593l-0.1389,0.0554c-0.0291-0.0923-0.074-0.1478-0.1451-0.1815
											c-0.1374-0.0652-0.2575-0.0194-0.3448,0.1645c-0.0773,0.1631-0.0703,0.3048,0.0857,0.3788
											c0.0734,0.0348,0.1559,0.0354,0.2503,0.0017l0.0352,0.1422C32.1502,34.757,32.0429,34.7517,31.93,34.6982z"/>
										<path d="M32.3938,34.9025l0.3684-0.7768l0.1549,0.0735l-0.3684,0.7767L32.3938,34.9025z"/>
										<path d="M33.3068,35.3355l0.0172-0.1987l-0.3144-0.1491l-0.1441,0.1385l-0.1596-0.0757l0.6658-0.6399l0.1666,0.0789
											l-0.0673,0.9239L33.3068,35.3355z M33.3821,34.6023l-0.0024-0.0011l-0.2743,0.2778l0.2375,0.1127L33.3821,34.6023z"/>
										<path d="M33.6294,35.4885l0.3684-0.7767l0.1549,0.0734l-0.3065,0.6464l0.3284,0.1557l-0.0618,0.1304L33.6294,35.4885z"/>
										<path d="M34.9652,36.1221l-0.1607-0.0762l0.1076-0.9005l0.163,0.0773l-0.1034,0.6842l0.0012,0.0006l0.4621-0.5141
											l0.1618,0.0768L34.9652,36.1221z"/>
										<path d="M35.7063,36.4878c-0.2341-0.111-0.3144-0.3146-0.1885-0.5801c0.1243-0.262,0.3333-0.3327,0.5685-0.2211
											c0.2352,0.1116,0.3121,0.3164,0.1873,0.5796C36.1476,36.5317,35.9392,36.5983,35.7063,36.4878z M36.0272,35.8112
											c-0.1677-0.0795-0.2691,0.005-0.3487,0.1727c-0.079,0.1666-0.0808,0.2998,0.0869,0.3793
											c0.1677,0.0795,0.2685-0.0067,0.3475-0.1733C36.1913,36.0246,36.1949,35.8907,36.0272,35.8112z"/>
										<path d="M36.8913,36.2453l-0.306,0.6452l-0.1549-0.0735l0.306-0.6452l-0.219-0.1038l0.0625-0.1316l0.5939,0.2817
											l-0.0624,0.1316L36.8913,36.2453z"/>
										<path d="M36.9638,37.07l0.3685-0.7768l0.5135,0.2436l-0.0613,0.1293l-0.3587-0.1701l-0.0856,0.1805l0.325,0.1541
											l-0.0624,0.1316l-0.325-0.1541l-0.0989,0.2084l0.3704,0.1756l-0.0603,0.127L36.9638,37.07z"/>
										<path d="M37.7724,37.1339l0.0657-0.1385l0.3133,0.1485l-0.0658,0.1386L37.7724,37.1339z"/>
										<path d="M38.5186,37.8074l-0.3471-0.1646l0.3657-0.7709c0.09,0.0298,0.1923,0.0727,0.282,0.1152
											c0.1479,0.0701,0.3005,0.1753,0.2144,0.357c-0.0453,0.0955-0.1157,0.1206-0.2059,0.1092l-0.0011,0.0023
											c0.0878,0.0645,0.1145,0.1556,0.0609,0.2686C38.8168,37.8733,38.6898,37.8886,38.5186,37.8074z M38.6209,37.4323
											c-0.0478-0.0227-0.0949-0.0436-0.1327-0.0601l-0.1094,0.2305c0.0432,0.0234,0.0769,0.0394,0.1305,0.0648
											c0.1002,0.0475,0.1803,0.0741,0.2305-0.0319C38.7945,37.5203,38.6977,37.4687,38.6209,37.4323z M38.7652,37.107
											c-0.0361-0.0172-0.0978-0.0436-0.1256-0.0511l-0.0972,0.205c0.035,0.0195,0.071,0.0366,0.1258,0.0625
											c0.1025,0.0486,0.1626,0.0543,0.2056-0.0365C38.9097,37.2112,38.8793,37.1611,38.7652,37.107z"/>
										<path d="M39.4628,37.88l-0.1453,0.3063l-0.1549-0.0734l0.1436-0.3028l-0.0593-0.6088l0.177,0.084l0.0261,0.4232
											l0.3466-0.2464l0.17,0.0806L39.4628,37.88z"/>
										<path d="M39.7685,38.0807l0.0658-0.1386l0.3133,0.1486l-0.0658,0.1386L39.7685,38.0807z"/>
										<path d="M40.7628,38.8718l0.2508-0.5287L41.01,38.3414l-0.3736,0.2194l-0.0665-0.4253l-0.0035-0.0016l-0.2496,0.5264
											l-0.1491-0.0707l0.3684-0.7768l0.1363,0.0647l0.0707,0.4585l0.3998-0.2354l0.1374,0.0652l-0.3684,0.7767L40.7628,38.8718z
											"/>
										<path d="M41.6725,39.3032l0.0172-0.1987l-0.3145-0.1491l-0.1441,0.1385l-0.1596-0.0757l0.6659-0.6399l0.1665,0.079
											l-0.0673,0.9238L41.6725,39.3032z M41.7477,38.57l-0.0023-0.0011l-0.2744,0.2779l0.2375,0.1126L41.7477,38.57z"/>
										<path d="M41.9951,39.4563l0.3684-0.7768l0.1548,0.0735l-0.3684,0.7767L41.9951,39.4563z"/>
										<path d="M42.3794,39.6386l0.3684-0.7768l0.1549,0.0735l-0.3065,0.6463l0.3284,0.1558l-0.0619,0.1304L42.3794,39.6386z"/>
										<path d="M43.7094,40.2693l-0.347-0.1645l0.3656-0.771c0.09,0.0299,0.1924,0.0727,0.282,0.1153
											c0.1479,0.0701,0.3006,0.1753,0.2144,0.357c-0.0453,0.0955-0.1156,0.1206-0.2059,0.1092l-0.0011,0.0023
											c0.0879,0.0645,0.1146,0.1556,0.061,0.2686C44.0077,40.3352,43.8806,40.3505,43.7094,40.2693z M43.8117,39.8942
											c-0.0477-0.0226-0.0948-0.0435-0.1326-0.0601l-0.1094,0.2306c0.0431,0.0233,0.0769,0.0393,0.1305,0.0648
											c0.1001,0.0475,0.1802,0.074,0.2305-0.032C43.9854,39.9823,43.8886,39.9307,43.8117,39.8942z M43.956,39.5689
											c-0.0361-0.0171-0.0977-0.0435-0.1256-0.051l-0.0972,0.205c0.035,0.0194,0.0711,0.0365,0.1258,0.0625
											c0.1025,0.0486,0.1626,0.0543,0.2057-0.0365C44.1006,39.6732,44.0702,39.6231,43.956,39.5689z"/>
										<path d="M44.6982,40.7383l0.0172-0.1987l-0.3145-0.1491l-0.1441,0.1385l-0.1596-0.0757l0.6659-0.6399l0.1665,0.0789
											l-0.0673,0.9239L44.6982,40.7383z M44.7734,40.0051l-0.0023-0.0011l-0.2744,0.2778l0.2375,0.1127L44.7734,40.0051z"/>
										<path d="M45.0208,40.8913l0.3684-0.7767l0.1549,0.0734l-0.3066,0.6463l0.3284,0.1558l-0.0618,0.1304L45.0208,40.8913z"/>
										<path d="M45.6776,41.2029l0.3684-0.7768l0.1549,0.0735l-0.3065,0.6463l0.3284,0.1558l-0.0619,0.1304L45.6776,41.2029z"/>
										<path d="M46.669,41.6873c-0.2341-0.111-0.3144-0.3145-0.1884-0.5801c0.1242-0.262,0.3332-0.3326,0.5684-0.2211
											c0.2353,0.1116,0.3121,0.3164,0.1873,0.5796C47.1104,41.7312,46.9019,41.7978,46.669,41.6873z M46.9899,41.0107
											c-0.1677-0.0795-0.2691,0.0051-0.3486,0.1728c-0.079,0.1665-0.0809,0.2997,0.0868,0.3792
											c0.1677,0.0795,0.2685-0.0067,0.3475-0.1732C47.154,41.2241,47.1576,41.0903,46.9899,41.0107z"/>
										<path d="M47.854,41.4448L47.5481,42.09l-0.1549-0.0735l0.306-0.6451l-0.219-0.1039l0.0624-0.1316l0.594,0.2817
											l-0.0624,0.1316L47.854,41.4448z"/>
									</g>
									<line fill="none" stroke="#000000" stroke-width="0.0761" x1="19.7077" y1="13.2449" x2="34.5057" y2="20.2634"/>
									<line fill="none" stroke="#000000" stroke-width="0.0761" x1="19.1228" y1="14.478" x2="33.9208" y2="21.4966"/>
									<line fill="none" stroke="#000000" stroke-width="0.0761" x1="18.538" y1="15.7112" x2="33.336" y2="22.7297"/>
									
										<line fill="none" stroke="#BCBEC0" stroke-width="0.5" stroke-miterlimit="10" x1="65.7985" y1="34.5446" x2="69.1444" y2="36.1334"/>
									<line fill="none" stroke="#BCBEC0" stroke-miterlimit="10" x1="17.7289" y1="17.6155" x2="27.6332" y2="22.3188"/>
									
										<line fill="none" stroke="#BCBEC0" stroke-width="0.5" stroke-miterlimit="10" x1="65.3352" y1="35.5202" x2="68.6811" y2="37.109"/>
									
										<line fill="none" stroke="#BCBEC0" stroke-width="0.5" stroke-miterlimit="10" x1="65.5224" y1="36.8046" x2="67.4735" y2="37.7312"/>
									
										<line fill="none" stroke="#BCBEC0" stroke-width="0.5" stroke-miterlimit="10" x1="64.0998" y1="38.1218" x2="67.4457" y2="39.7106"/>
									
										<line fill="none" stroke="#BCBEC0" stroke-width="0.5" stroke-miterlimit="10" x1="10.2617" y1="33.1757" x2="17.9151" y2="36.81"/>
									
										<line fill="none" stroke="#BCBEC0" stroke-width="0.5" stroke-miterlimit="10" x1="9.7985" y1="34.1513" x2="17.4518" y2="37.7856"/>
									
										<line fill="none" stroke="#BCBEC0" stroke-width="0.5" stroke-miterlimit="10" x1="9.3352" y1="35.1269" x2="15.0374" y2="37.8346"/>
									
										<line fill="none" stroke="#BCBEC0" stroke-width="0.5" stroke-miterlimit="10" x1="64.287" y1="39.4062" x2="66.2382" y2="40.3327"/>
									<g>
										
											<line fill="none" stroke="#BCBEC0" stroke-width="0.5" stroke-miterlimit="10" x1="32.7262" y1="39.955" x2="40.3795" y2="43.5894"/>
										
											<line fill="none" stroke="#BCBEC0" stroke-width="0.5" stroke-miterlimit="10" x1="32.2629" y1="40.9306" x2="39.9163" y2="44.5649"/>
										
											<line fill="none" stroke="#BCBEC0" stroke-width="0.5" stroke-miterlimit="10" x1="31.7996" y1="41.9062" x2="37.5018" y2="44.614"/>
									</g>
									<g>
										<g>
											<path fill="#BCBEC0" d="M37.4743,24.2039c0.5735-0.4339,1.4668-0.3562,2.1055,0.0392
												c0.6351,0.3879,1.1409,0.8663,1.6668,1.2715c0.5153,0.3928,1.0811,0.7818,1.5991,0.9489
												c0.5181,0.1583,1.1118,0.1178,1.7581-0.0184c0.6504-0.1005,1.3476-0.3246,2.2135-0.2274
												c0.4342,0.0687,0.8742,0.2615,1.2075,0.6132c0.3463,0.3599,0.4535,0.8323,0.4906,1.2039
												c0.0757,0.7572-0.0403,1.3866,0.2995,1.8514c0.3805,0.4706,1.0427,0.7767,1.7082,0.8863
												c-0.6754,0.0784-1.4406-0.0565-2.0471-0.5523c-0.328-0.2578-0.5082-0.6627-0.6063-1.0243
												c-0.1039-0.3647-0.1407-0.7149-0.2189-1.0111c-0.0787-0.2986-0.1869-0.5194-0.3389-0.6485
												c-0.1592-0.1319-0.3855-0.2223-0.6324-0.2399c-0.5162-0.0486-1.1704,0.1337-1.8675,0.2712
												c-0.6961,0.1233-1.5225,0.2069-2.3219-0.0829c-0.7682-0.3347-1.3233-0.7866-1.8344-1.3029
												c-0.511-0.4986-0.929-1.0537-1.4021-1.4861C38.8167,24.2371,38.16,24.025,37.4743,24.2039z"/>
										</g>
										<g>
											<path fill="#BCBEC0" d="M35.3213,25.314c0.6492-0.3231,1.3299-0.5738,2.106-0.6587
												c0.3857-0.0323,0.8222,0.0398,1.1971,0.2194c0.188,0.085,0.3565,0.1905,0.509,0.2905
												c0.1704,0.1154,0.3314,0.2504,0.4741,0.3904c0.563,0.582,0.9078,1.1033,1.4384,1.4449
												c0.3837,0.2793,1.0437,0.2793,1.7472,0.2702c0.6969-0.0031,1.4349-0.0252,2.2025,0.0752
												c0.7712,0.0953,1.5955,0.4354,2.1706,0.9879c0.3033,0.2733,0.577,0.658,0.6718,1.0752
												c0.1084,0.4119,0.0797,0.7799,0.1302,1.0881c0.0823,0.5764,0.9283,0.8007,1.6111,0.8116
												c-0.3498,0.0798-0.72,0.1246-1.0973,0.0537c-0.3697-0.0485-0.7987-0.296-0.9535-0.7289
												c-0.1611-0.3751-0.206-0.7357-0.3393-0.9991c-0.127-0.2655-0.3215-0.4589-0.5674-0.6359
												c-1.0376-0.7584-2.3602-0.5925-3.8255-0.5922c-0.365-0.0044-0.7393-0.0101-1.1425-0.068
												c-0.2007-0.0316-0.4087-0.0619-0.6288-0.1522c-0.2102-0.0673-0.4664-0.2402-0.5979-0.3462
												c-0.6559-0.4842-1.0831-1.2048-1.4596-1.6902c-0.1005-0.1214-0.204-0.2276-0.3195-0.3264
												c-0.1344-0.1122-0.2584-0.213-0.3827-0.3011c-0.2458-0.1761-0.5264-0.2733-0.8532-0.3149
												C36.7549,25.1039,36.0359,25.233,35.3213,25.314z"/>
										</g>
										<g>
											<path fill="#BCBEC0" d="M35.8147,25.995c0.5738-0.4023,1.4214-0.5591,2.167-0.2258
												c0.3451,0.1549,0.6899,0.3834,0.9593,0.6639c0.2696,0.2808,0.4794,0.5665,0.6974,0.8099
												c0.2194,0.2446,0.4411,0.4676,0.6867,0.6728c0.1187,0.1022,0.2556,0.2029,0.3782,0.2889
												c0.1151,0.0679,0.2268,0.1382,0.3576,0.1814c0.5022,0.2074,1.1473,0.2194,1.8241,0.1912
												c0.6793-0.0074,1.4097-0.065,2.1952,0.0776c0.7584,0.1478,1.6419,0.5672,2.0026,1.4304
												c0.3059,0.8305,0.2056,1.4285,0.5689,1.9583c0.3264,0.5356,0.9139,0.9418,1.6229,0.9894
												c-0.6909,0.1944-1.5075-0.0955-2.0338-0.6572c-0.5945-0.5512-0.7079-1.4629-0.9694-1.8953
												c-0.2567-0.4194-0.7891-0.6801-1.3791-0.7476c-0.593-0.0991-1.2677-0.0355-1.9786-0.0155
												c-0.705,0.0017-1.5016,0.0163-2.2882-0.3407c-0.1954-0.0854-0.374-0.2085-0.5478-0.3364
												c-0.1538-0.1254-0.2902-0.2423-0.4272-0.377c-0.2736-0.26-0.5248-0.5529-0.7324-0.8593
												c-0.4254-0.6279-0.6905-1.142-1.2367-1.4861C37.206,25.9412,36.5098,25.8513,35.8147,25.995z"/>
										</g>
										<polygon points="38.9098,23.6048 38.9078,23.7615 39.0357,23.852 38.886,23.8985 38.8395,24.0482 38.749,23.9202 
											38.5922,23.9222 38.686,23.7966 38.6356,23.6481 38.7841,23.6985 										"/>
										<polygon points="38.3613,25.1757 38.3593,25.3325 38.4872,25.4229 38.3375,25.4695 38.291,25.6192 38.2005,25.4912 
											38.0438,25.4932 38.1375,25.3676 38.0871,25.2191 38.2356,25.2695 										"/>
										<polygon points="37.064,24.5148 37.0621,24.6715 37.19,24.762 37.0403,24.8085 36.9937,24.9582 36.9033,24.8302 
											36.7465,24.8322 36.8402,24.7066 36.7899,24.5581 36.9384,24.6085 										"/>
										<polygon points="37.4398,26.9842 37.4378,27.1409 37.5658,27.2314 37.416,27.278 37.3695,27.4276 37.2791,27.2996 
											37.1223,27.3016 37.216,27.176 37.1657,27.0275 37.3142,27.0779 										"/>
										<polygon points="40.6729,27.2668 40.6709,27.4235 40.7988,27.514 40.6491,27.5606 40.6026,27.7102 40.5122,27.5823 
											40.3554,27.5842 40.4491,27.4587 40.3988,27.3102 40.5473,27.3605 										"/>
										<polygon points="41.5807,29.3337 41.5787,29.4904 41.7066,29.5809 41.5569,29.6275 41.5104,29.7771 41.42,29.6492 
											41.2632,29.6512 41.3569,29.5256 41.3066,29.3771 41.4551,29.4274 										"/>
										<polygon points="43.4306,26.3875 43.4286,26.5442 43.5565,26.6347 43.4068,26.6813 43.3603,26.8309 43.2699,26.703 
											43.1131,26.705 43.2068,26.5794 43.1565,26.4309 43.305,26.4812 										"/>
										<polygon points="44.8939,27.6124 44.892,27.7691 45.0199,27.8596 44.8702,27.9062 44.8236,28.0558 44.7332,27.9278 
											44.5764,27.9298 44.6701,27.8042 44.6198,27.6558 44.7683,27.7061 										"/>
										<polygon points="46.8253,26.438 46.8233,26.5947 46.9512,26.6852 46.8015,26.7318 46.7549,26.8814 46.6645,26.7535 
											46.5077,26.7554 46.6015,26.6299 46.5512,26.4814 46.6996,26.5317 										"/>
										<polygon points="47.0282,27.8224 47.0262,27.9791 47.1541,28.0696 47.0044,28.1162 46.9579,28.2658 46.8674,28.1379 
											46.7107,28.1399 46.8044,28.0143 46.7541,27.8658 46.9025,27.9161 										"/>
										<polygon points="48.0864,28.3616 48.0844,28.5183 48.2123,28.6088 48.0626,28.6554 48.0161,28.805 47.9256,28.6771 
											47.7689,28.6791 47.8626,28.5535 47.8123,28.405 47.9608,28.4553 										"/>
										<polygon points="48.339,31.1729 48.3371,31.3296 48.465,31.4201 48.3153,31.4667 48.2687,31.6163 48.1783,31.4884 
											48.0215,31.4903 48.1152,31.3648 48.0649,31.2163 48.2134,31.2666 										"/>
										<polygon points="46.243,30.9904 46.241,31.1471 46.369,31.2376 46.2192,31.2842 46.1727,31.4338 46.0823,31.3058 
											45.9255,31.3078 46.0192,31.1822 45.9689,31.0338 46.1174,31.0841 										"/>
									</g>
								</g>
								<g>
									<path fill="#DADBDC" stroke="#000000" stroke-width="0.75" stroke-miterlimit="10" d="M-10.1184,30.1816l9.4-1.9
										c0,0,11.7,5.1,14.6-4.7c2.3,4.2,6.1,4.1,7.2,3.1c0.3-0.2,1.3-0.9,0.2-2.1s-2.9-3.3-2.9-3.3s-2.9-3.5-4.2-4.9
										s-2.3-0.9-2.8-0.6c-0.6,0.4-4.4,1.5-4.4,1.5"/>
									<path fill="none" stroke="#000000" stroke-width="0.75" stroke-miterlimit="10" d="M18.7816,21.9816
										c-0.7,0.6-0.6,1.8,0.2,2.7s2,1.1,2.7,0.5"/>
								</g>
							</g>
						</g>
					</g>
				</g>
			</g>
		</g>
	</g>
	<rect x="0.5" y="0.5" fill="none" stroke="#000000" stroke-miterlimit="10" width="107.6688" height="107.6688"/>
</g>
</svg>
