<?xml version="1.0" encoding="utf-8"?>
<!-- Generator: Adobe Illustrator 24.2.3, SVG Export Plug-In . SVG Version: 6.00 Build 0)  -->
<svg version="1.1" id="Layer_1" xmlns="http://www.w3.org/2000/svg" xmlns:xlink="http://www.w3.org/1999/xlink" x="0px" y="0px"
	 viewBox="0 0 120.2047 139.1142" enable-background="new 0 0 120.2047 139.1142" xml:space="preserve">
<g>
	
		<rect x="0.375" y="11.4221" fill="#FFFFFF" stroke="#000000" stroke-width="0.75" stroke-miterlimit="10" width="56.2" height="118.2"/>
	<g>
		<g>
			
				<rect x="3.175" y="50.0653" fill="#FFFFFF" stroke="#000000" stroke-width="0.5" stroke-miterlimit="10" width="42.3214" height="7.6275"/>
			<line fill="none" stroke="#000000" stroke-miterlimit="10" x1="4.8524" y1="52.6619" x2="7.2331" y2="55.0421"/>
			<line fill="none" stroke="#000000" stroke-miterlimit="10" x1="7.2331" y1="52.6619" x2="4.8524" y2="55.0421"/>
		</g>
		<g>
			<path d="M5.112,46.3089H4.4216L3.3005,42.971h0.7012l0.7754,2.5723H4.782l0.7656-2.5723h0.6963L5.112,46.3089z"/>
			<path d="M7.6716,43.7415c0.8359,0,1.2666,0.5059,1.2666,1.3115c0,0.7656-0.4004,1.3105-1.2666,1.3105
				c-0.8555,0-1.2617-0.54-1.2617-1.3105C6.4099,44.3216,6.7761,43.7415,7.6716,43.7415z M7.6765,45.8831
				c0.4609,0,0.6104-0.3203,0.6104-0.8301c0-0.501-0.1445-0.8115-0.6104-0.8115c-0.4658,0-0.6152,0.3105-0.6152,0.8115
				C7.0612,45.5628,7.2107,45.8831,7.6765,45.8831z"/>
			<path d="M10.5261,46.3489c-0.6553,0-0.8154-0.2002-0.8154-0.7207v-1.3164H9.3005v-0.5156h0.415v-0.6699h0.6309v0.6699h0.585
				v0.5156h-0.585v1.2061c0,0.251,0.0195,0.3057,0.4502,0.3057c0.0498,0,0.0703,0,0.1348-0.0049v0.5
				C10.7614,46.3391,10.6462,46.3489,10.5261,46.3489z"/>
			<path d="M13.737,45.2581h-1.7412c0,0.3955,0.21,0.625,0.665,0.625c0.2656,0,0.4805-0.0693,0.7461-0.2246l0.2051,0.4307
				c-0.3154,0.1943-0.626,0.2744-0.9814,0.2744c-0.8457,0-1.2812-0.5146-1.2812-1.3057c0-0.9365,0.5957-1.3213,1.2363-1.3213
				c0.7314,0,1.1562,0.5254,1.1562,1.3164C13.7419,45.0872,13.7419,45.1878,13.737,45.2581z M12.5964,44.2063
				c-0.4307,0-0.6006,0.3154-0.6006,0.626h1.1611C13.157,44.4973,12.9812,44.2063,12.5964,44.2063z"/>
			<path d="M15.7312,44.3069c-0.4248,0-0.7207,0.0752-0.7207,0.5303v1.4717h-0.6406v-2.5127h0.5459l0.0547,0.3301h0.0098
				c0.1406-0.2549,0.3506-0.3799,0.7412-0.3799h0.1602v0.5605H15.7312z"/>
			<path d="M18.7302,46.3635c-0.3848,0-0.75-0.0996-1.0801-0.2949l0.2246-0.4307c0.2656,0.1602,0.5762,0.2656,0.8555,0.2656
				c0.2461,0,0.4111-0.0752,0.4111-0.2852c0-0.2256-0.2451-0.2852-0.5361-0.3555c-0.4355-0.1006-0.875-0.25-0.875-0.7959
				c0-0.4209,0.3447-0.7256,1.0059-0.7256c0.3145,0,0.6201,0.0645,0.9102,0.21l-0.1699,0.4404
				c-0.2002-0.1201-0.4805-0.1904-0.6953-0.1904c-0.2754,0-0.4453,0.0703-0.4453,0.2451c0,0.2158,0.2646,0.251,0.5801,0.3311
				c0.3906,0.0947,0.8213,0.2451,0.8213,0.79C19.737,46.1135,19.3816,46.3635,18.7302,46.3635z"/>
			<path d="M20.6501,43.471c-0.2295,0-0.375-0.125-0.375-0.3203s0.1455-0.3252,0.375-0.3252c0.2354,0,0.3809,0.1299,0.3809,0.3252
				S20.8806,43.471,20.6501,43.471z M20.3298,46.3089v-2.5127h0.6465v2.5127H20.3298z"/>
			<path d="M23.9773,46.3186c0,0.9307-0.4258,1.1211-1.1064,1.1211c-0.415,0-0.751-0.0898-1.0957-0.2754l0.1846-0.4756
				c0.29,0.1709,0.5605,0.2607,0.8916,0.2607c0.3496,0,0.5-0.1006,0.5-0.4658v-0.54h-0.0098
				c-0.1758,0.2705-0.3711,0.3604-0.6758,0.3604c-0.751,0-1.0566-0.5654-1.0566-1.2715c0-0.6855,0.2754-1.291,1.041-1.291
				c0.3262,0,0.5713,0.085,0.7461,0.3652h0.0098l0.0303-0.3105h0.541V46.3186z M23.3464,44.7327c0-0.3457-0.2002-0.501-0.5254-0.501
				c-0.4756,0-0.5605,0.3906-0.5605,0.7861c0,0.4004,0.1152,0.8008,0.5605,0.8008c0.4004,0,0.5254-0.2559,0.5254-0.6162V44.7327z"/>
			<path d="M26.3415,46.3089V44.888c0-0.3613-0.0449-0.6113-0.4609-0.6113c-0.3398,0-0.5254,0.1758-0.5254,0.5107v1.5215h-0.6406
				v-2.5127h0.5557l0.04,0.3057H25.32c0.1807-0.2656,0.4209-0.3604,0.7559-0.3604c0.6914,0,0.9062,0.3955,0.9062,1.0361v1.5312
				H26.3415z"/>
			<path d="M29.6316,46.3684c-0.1699-0.0498-0.2998-0.125-0.3604-0.3047h-0.0098c-0.2451,0.1953-0.5205,0.3047-0.8359,0.3047
				c-0.4707,0-0.8164-0.2695-0.8164-0.7656c0-0.8301,0.9463-0.9102,1.5771-0.9102v-0.1758
				c-0.0049-0.2305-0.1455-0.3105-0.3955-0.3105c-0.3301,0-0.6602,0.1211-0.9111,0.2656l-0.2051-0.4307
				c0.3809-0.1895,0.7412-0.2998,1.1768-0.2998c0.7002,0,0.9756,0.2754,0.9756,0.9707v0.9561c0,0.1602,0.0801,0.2354,0.2051,0.2998
				L29.6316,46.3684z M29.2009,45.053c-0.3555,0-0.9658,0.0146-0.9658,0.5098c0,0.2256,0.1504,0.376,0.3809,0.376
				c0.2246,0,0.4004-0.0801,0.585-0.2158V45.053z"/>
			<path d="M31.5456,46.3489c-0.6553,0-0.8154-0.2002-0.8154-0.7207v-1.3164H30.32v-0.5156h0.415v-0.6699h0.6309v0.6699h0.585
				v0.5156h-0.585v1.2061c0,0.251,0.0195,0.3057,0.4502,0.3057c0.0498,0,0.0703,0,0.1348-0.0049v0.5
				C31.781,46.3391,31.6657,46.3489,31.5456,46.3489z"/>
			<path d="M34.1667,46.3089l-0.04-0.2949H34.112c-0.1406,0.2148-0.376,0.3545-0.7363,0.3545c-0.5557,0-0.8809-0.2148-0.8809-1.0059
				v-1.5664h0.6406v1.3369c0,0.4346,0.0254,0.7002,0.4453,0.7002c0.4004,0,0.501-0.2051,0.501-0.5449v-1.4922h0.6406v2.5127H34.1667
				z"/>
			<path d="M36.821,44.3069c-0.4248,0-0.7207,0.0752-0.7207,0.5303v1.4717h-0.6406v-2.5127h0.5459l0.0547,0.3301H36.07
				c0.1406-0.2549,0.3506-0.3799,0.7412-0.3799h0.1602v0.5605H36.821z"/>
			<path d="M39.7019,45.2581h-1.7412c0,0.3955,0.21,0.625,0.665,0.625c0.2656,0,0.4805-0.0693,0.7461-0.2246l0.2051,0.4307
				c-0.3154,0.1943-0.626,0.2744-0.9814,0.2744c-0.8457,0-1.2812-0.5146-1.2812-1.3057c0-0.9365,0.5957-1.3213,1.2363-1.3213
				c0.7314,0,1.1562,0.5254,1.1562,1.3164C39.7068,45.0872,39.7068,45.1878,39.7019,45.2581z M38.5612,44.2063
				c-0.4307,0-0.6006,0.3154-0.6006,0.626h1.1611C39.1218,44.4973,38.946,44.2063,38.5612,44.2063z"/>
		</g>
	</g>
	<g>
		<g>
			
				<rect x="3.175" y="101.4155" fill="#FFFFFF" stroke="#000000" stroke-width="0.5" stroke-miterlimit="10" width="42.3214" height="7.6275"/>
			<line fill="none" stroke="#000000" stroke-miterlimit="10" x1="4.8524" y1="104.0121" x2="7.2331" y2="106.3923"/>
			<line fill="none" stroke="#000000" stroke-miterlimit="10" x1="7.2331" y1="104.0121" x2="4.8524" y2="106.3923"/>
		</g>
		<g>
			<path d="M7.0593,97.6946H6.3386l-0.6709-2.4473H5.6482l-0.6758,2.4473H4.2165l-0.8906-3.3379h0.7305l0.5703,2.542h0.0156
				l0.7002-2.542h0.6709l0.6758,2.542h0.0195l0.6006-2.542h0.7061L7.0593,97.6946z"/>
			<path d="M8.8152,94.8567c-0.2295,0-0.375-0.125-0.375-0.3203s0.1455-0.3252,0.375-0.3252c0.2354,0,0.3809,0.1299,0.3809,0.3252
				S9.0456,94.8567,8.8152,94.8567z M8.4948,97.6946v-2.5127h0.6455v2.5127H8.4948z"/>
			<path d="M10.8454,97.7346c-0.6553,0-0.8154-0.2002-0.8154-0.7207v-1.3164H9.6198v-0.5156h0.415V94.512h0.6309v0.6699h0.585
				v0.5156h-0.585v1.2061c0,0.251,0.0195,0.3057,0.4502,0.3057c0.0498,0,0.0703,0,0.1348-0.0049v0.5
				C11.0808,97.7249,10.9655,97.7346,10.8454,97.7346z"/>
			<path d="M13.5212,97.6946v-1.4209c0-0.3613-0.0449-0.6113-0.4609-0.6113c-0.3398,0-0.5254,0.1758-0.5254,0.5107v1.5215h-0.6406
				v-2.5127h0.5557l0.04,0.3057h0.0098c0.1807-0.2656,0.4209-0.3604,0.7559-0.3604c0.6914,0,0.9062,0.3955,0.9062,1.0361v1.5312
				H13.5212z"/>
			<path d="M17.1765,96.6438h-1.7412c0,0.3955,0.21,0.625,0.665,0.625c0.2656,0,0.4805-0.0693,0.7461-0.2246l0.2051,0.4307
				c-0.3154,0.1943-0.626,0.2744-0.9814,0.2744c-0.8457,0-1.2812-0.5146-1.2812-1.3057c0-0.9365,0.5957-1.3213,1.2363-1.3213
				c0.7314,0,1.1562,0.5254,1.1562,1.3164C17.1814,96.4729,17.1814,96.5735,17.1765,96.6438z M16.0359,95.5921
				c-0.4307,0-0.6006,0.3154-0.6006,0.626h1.1611C16.5964,95.8831,16.4206,95.5921,16.0359,95.5921z"/>
			<path d="M18.7009,97.7493c-0.3857,0-0.751-0.0996-1.082-0.2949l0.2256-0.4307c0.2656,0.1602,0.5752,0.2656,0.8564,0.2656
				c0.2451,0,0.4102-0.0752,0.4102-0.2852c0-0.2256-0.2451-0.2852-0.5361-0.3555c-0.4346-0.1006-0.876-0.25-0.876-0.7959
				c0-0.4209,0.3457-0.7256,1.0068-0.7256c0.3154,0,0.6201,0.0645,0.9102,0.21l-0.1699,0.4404
				c-0.2002-0.1201-0.4805-0.1904-0.6953-0.1904c-0.2754,0-0.4453,0.0703-0.4453,0.2451c0,0.2158,0.2646,0.251,0.5801,0.3311
				c0.3906,0.0947,0.8213,0.2451,0.8213,0.79C19.7068,97.4993,19.3513,97.7493,18.7009,97.7493z"/>
			<path d="M21.1853,97.7493c-0.3848,0-0.75-0.0996-1.0801-0.2949l0.2246-0.4307c0.2656,0.1602,0.5762,0.2656,0.8555,0.2656
				c0.2461,0,0.4111-0.0752,0.4111-0.2852c0-0.2256-0.2451-0.2852-0.5361-0.3555c-0.4355-0.1006-0.875-0.25-0.875-0.7959
				c0-0.4209,0.3447-0.7256,1.0059-0.7256c0.3145,0,0.6201,0.0645,0.9102,0.21l-0.1699,0.4404
				c-0.2002-0.1201-0.4805-0.1904-0.6953-0.1904c-0.2754,0-0.4453,0.0703-0.4453,0.2451c0,0.2158,0.2646,0.251,0.5801,0.3311
				c0.3906,0.0947,0.8213,0.2451,0.8213,0.79C22.1921,97.4993,21.8366,97.7493,21.1853,97.7493z"/>
			<path d="M25.0505,97.7493c-0.3848,0-0.75-0.0996-1.0801-0.2949l0.2246-0.4307c0.2656,0.1602,0.5762,0.2656,0.8555,0.2656
				c0.2461,0,0.4111-0.0752,0.4111-0.2852c0-0.2256-0.2451-0.2852-0.5361-0.3555c-0.4355-0.1006-0.875-0.25-0.875-0.7959
				c0-0.4209,0.3447-0.7256,1.0059-0.7256c0.3145,0,0.6201,0.0645,0.9102,0.21l-0.1699,0.4404
				c-0.2002-0.1201-0.4805-0.1904-0.6953-0.1904c-0.2754,0-0.4453,0.0703-0.4453,0.2451c0,0.2158,0.2646,0.251,0.5801,0.3311
				c0.3906,0.0947,0.8213,0.2451,0.8213,0.79C26.0573,97.4993,25.7019,97.7493,25.0505,97.7493z"/>
			<path d="M26.9704,94.8567c-0.2295,0-0.375-0.125-0.375-0.3203s0.1455-0.3252,0.375-0.3252c0.2354,0,0.3809,0.1299,0.3809,0.3252
				S27.2009,94.8567,26.9704,94.8567z M26.6501,97.6946v-2.5127h0.6465v2.5127H26.6501z"/>
			<path d="M30.2976,97.7044c0,0.9307-0.4258,1.1211-1.1064,1.1211c-0.415,0-0.751-0.0898-1.0957-0.2754l0.1846-0.4756
				c0.29,0.1709,0.5605,0.2607,0.8916,0.2607c0.3496,0,0.5-0.1006,0.5-0.4658v-0.54h-0.0098
				c-0.1758,0.2705-0.3711,0.3604-0.6758,0.3604c-0.751,0-1.0566-0.5654-1.0566-1.2715c0-0.6855,0.2754-1.291,1.041-1.291
				c0.3262,0,0.5713,0.085,0.7461,0.3652h0.0098l0.0303-0.3105h0.541V97.7044z M29.6667,96.1184c0-0.3457-0.2002-0.501-0.5254-0.501
				c-0.4756,0-0.5605,0.3906-0.5605,0.7861c0,0.4004,0.1152,0.8008,0.5605,0.8008c0.4004,0,0.5254-0.2559,0.5254-0.6162V96.1184z"/>
			<path d="M32.6618,97.6946v-1.4209c0-0.3613-0.0449-0.6113-0.4609-0.6113c-0.3398,0-0.5254,0.1758-0.5254,0.5107v1.5215h-0.6406
				v-2.5127h0.5557l0.04,0.3057h0.0098c0.1807-0.2656,0.4209-0.3604,0.7559-0.3604c0.6914,0,0.9062,0.3955,0.9062,1.0361v1.5312
				H32.6618z"/>
			<path d="M35.9519,97.7542c-0.1699-0.0498-0.2998-0.125-0.3604-0.3047h-0.0098c-0.2451,0.1953-0.5205,0.3047-0.8359,0.3047
				c-0.4707,0-0.8164-0.2695-0.8164-0.7656c0-0.8301,0.9463-0.9102,1.5771-0.9102v-0.1758
				c-0.0049-0.2305-0.1455-0.3105-0.3955-0.3105c-0.3301,0-0.6602,0.1211-0.9111,0.2656l-0.2051-0.4307
				c0.3809-0.1895,0.7412-0.2998,1.1768-0.2998c0.7002,0,0.9756,0.2754,0.9756,0.9707v0.9561c0,0.1602,0.0801,0.2354,0.2051,0.2998
				L35.9519,97.7542z M35.5212,96.4387c-0.3555,0-0.9658,0.0146-0.9658,0.5098c0,0.2256,0.1504,0.376,0.3809,0.376
				c0.2246,0,0.4004-0.0801,0.585-0.2158V96.4387z"/>
			<path d="M37.8659,97.7346c-0.6553,0-0.8154-0.2002-0.8154-0.7207v-1.3164h-0.4102v-0.5156h0.415V94.512h0.6309v0.6699h0.585
				v0.5156h-0.585v1.2061c0,0.251,0.0195,0.3057,0.4502,0.3057c0.0498,0,0.0703,0,0.1348-0.0049v0.5
				C38.1013,97.7249,37.9861,97.7346,37.8659,97.7346z"/>
			<path d="M40.487,97.6946l-0.04-0.2949h-0.0146c-0.1406,0.2148-0.376,0.3545-0.7363,0.3545c-0.5557,0-0.8809-0.2148-0.8809-1.0059
				v-1.5664h0.6406v1.3369c0,0.4346,0.0254,0.7002,0.4453,0.7002c0.4004,0,0.501-0.2051,0.501-0.5449v-1.4922h0.6406v2.5127H40.487z
				"/>
			<path d="M43.1413,95.6926c-0.4248,0-0.7207,0.0752-0.7207,0.5303v1.4717H41.78v-2.5127h0.5459l0.0547,0.3301h0.0098
				c0.1406-0.2549,0.3506-0.3799,0.7412-0.3799h0.1602v0.5605H43.1413z"/>
			<path d="M46.0222,96.6438H44.281c0,0.3955,0.21,0.625,0.665,0.625c0.2656,0,0.4805-0.0693,0.7461-0.2246l0.2051,0.4307
				c-0.3154,0.1943-0.626,0.2744-0.9814,0.2744c-0.8457,0-1.2812-0.5146-1.2812-1.3057c0-0.9365,0.5957-1.3213,1.2363-1.3213
				c0.7314,0,1.1562,0.5254,1.1562,1.3164C46.0271,96.4729,46.0271,96.5735,46.0222,96.6438z M44.8816,95.5921
				c-0.4307,0-0.6006,0.3154-0.6006,0.626h1.1611C45.4421,95.8831,45.2663,95.5921,44.8816,95.5921z"/>
		</g>
	</g>
	<g>
		<g>
			
				<line fill="none" stroke="#000000" stroke-width="0.75" stroke-miterlimit="10" x1="61.6187" y1="126.4631" x2="61.0796" y2="125.9417"/>
			
				<line fill="none" stroke="#000000" stroke-width="0.75" stroke-miterlimit="10" stroke-dasharray="1.5535,0.7768" x1="60.5213" y1="125.4016" x2="40.7002" y2="106.2306"/>
			<polyline fill="none" stroke="#000000" stroke-width="0.75" stroke-miterlimit="10" points="40.421,105.9606 39.8819,105.4392 
				40.4252,104.9222 			"/>
			
				<line fill="none" stroke="#000000" stroke-width="0.75" stroke-miterlimit="10" stroke-dasharray="1.4379,0.719" x1="40.946" y1="104.4265" x2="59.4349" y2="86.8311"/>
			
				<line fill="none" stroke="#000000" stroke-width="0.75" stroke-miterlimit="10" x1="59.6953" y1="86.5833" x2="60.2386" y2="86.0663"/>
		</g>
	</g>
	<g>
		<g>
			
				<line fill="none" stroke="#000000" stroke-width="0.75" stroke-miterlimit="10" x1="67.1219" y1="60.4961" x2="66.395" y2="60.3113"/>
			
				<line fill="none" stroke="#000000" stroke-width="0.75" stroke-miterlimit="10" stroke-dasharray="1.4382,0.7191" x1="65.6981" y1="60.1341" x2="40.9572" y2="53.8441"/>
			<polyline fill="none" stroke="#000000" stroke-width="0.75" stroke-miterlimit="10" points="40.6088,53.7555 39.8819,53.5707 
				40.2521,52.9184 			"/>
			
				<line fill="none" stroke="#000000" stroke-width="0.75" stroke-miterlimit="10" stroke-dasharray="1.5241,0.762" x1="40.6283" y1="52.2557" x2="52.8527" y2="30.7166"/>
			
				<line fill="none" stroke="#000000" stroke-width="0.75" stroke-miterlimit="10" x1="53.0408" y1="30.3852" x2="53.411" y2="29.733"/>
		</g>
	</g>
	<g>
		<g>
			<defs>
				<circle id="SVGID_1_" cx="85.8097" cy="33.675" r="33.3"/>
			</defs>
			<use xlink:href="#SVGID_1_"  overflow="visible" fill="#FFFFFF"/>
			<clipPath id="SVGID_2_">
				<use xlink:href="#SVGID_1_"  overflow="visible"/>
			</clipPath>
			<g clip-path="url(#SVGID_2_)">
				<g>
					
						<rect x="54.0969" y="32.2273" fill="#FFFFFF" stroke="#000000" stroke-width="0.5" stroke-miterlimit="10" width="88.0559" height="14.1"/>
					<g>
						
							<rect x="58.6253" y="36.1163" transform="matrix(0.7071 -0.7071 0.7071 0.7071 -10.3401 53.4933)" width="1.5433" height="6.2221"/>
					</g>
					<g>
						
							<rect x="56.2859" y="38.4556" transform="matrix(0.7074 -0.7068 0.7068 0.7074 -10.3473 53.4582)" width="6.2221" height="1.5433"/>
					</g>
					<g>
						
							<path fill="none" stroke="#000000" stroke-width="0.5145" stroke-linecap="round" stroke-linejoin="round" stroke-miterlimit="10" d="
							M65.2969,42.2273c0.7,0,2.6-6,3.4-6c0.7,0-1.1,6-0.4,6s2.6-6,3.4-6c0.7,0-1.1,6-0.4,6s2.6-6,3.4-6c0.7,0-1.1,6-0.4,6
							s2.6-6,3.4-6c0.7,0-1.1,6-0.4,6s2.6-6,3.4-6c0.7,0-1.1,6-0.4,6s2.6-6,3.4-6c0.7,0-1.1,6-0.4,6"/>
					</g>
				</g>
				<g>
					<polygon fill="#C9CACC" points="171.1569,40.7273 144.7569,39.7273 145.0569,12.8273 171.0569,13.8273 					"/>
					<g>
						<path fill="#C9CACC" stroke="#000000" stroke-width="0.75" stroke-miterlimit="10" d="M91.8569,16.7273
							c-0.2,6.7,1.9,12.8,5.5,17.5c4.6,5.9,11.7,9.7,20.2,9.9c13.8,0.3,25.5-9.6,27.8-22.8"/>
						<path fill="#C9CACC" stroke="#000000" stroke-width="0.75" stroke-miterlimit="10" d="M106.8569,31.0273
							c6.6,0.2,8.6,3.1,9,5.9c0.3,2.5,0.2,4.8-5.3,4.7c-5.3-0.1-15-0.4-15-0.4s-4.7,0.5-4.6-4.8"/>
						<path fill="#DADBDC" stroke="#000000" stroke-width="0.75" stroke-miterlimit="10" d="M171.1569,40.6273l-17.6-0.4
							c0,0-35,16-34.1-21.2c-5.7,13-17.2,13.5-20.4,11c-0.9-0.5-3.9-2.4-1.1-6.1c2.9-3.7,7.7-10.5,7.7-10.5s5-6.6,8.3-11.1
							c3.3-4.4,6.7-3.1,8.2-2.4"/>
						<path fill="#C9CACC" stroke="#000000" stroke-width="0.75" stroke-miterlimit="10" d="M87.9569,32.2273c0,0-7.4,0.5-5.4-5.1
							c0,0,15.3-28.7,17.4-29.9c0.6-0.4,23-12.7,27-12.4c4,0.3,34.3,28.6,34.3,28.6l9.9,0.4"/>
						<path fill="#C9CACC" stroke="#000000" stroke-width="0.75" stroke-miterlimit="10" d="M110.1569,25.8273c6.7,0.2,8.7,3.2,9,6
							c0.2,3.2-0.1,4.7-5.5,4.6c-6.1-0.1-23.7-0.6-23.7-0.6l8-14.7"/>
						<g>
							<path fill="#FFFFFF" stroke="#000000" stroke-width="0.75" stroke-miterlimit="10" d="M84.7569,40.4273
								c-0.2,0.7,0.5,1.3,1.1,0.9l2-2.5l-1.1-0.9L84.7569,40.4273z"/>
							<polygon fill="#FFFFFF" stroke="#000000" stroke-width="0.75" stroke-miterlimit="10" points="146.3569,-31.7727 
								140.6569,-36.2727 87.4569,32.2273 87.4569,32.3273 85.6569,37.4273 88.5569,39.7273 93.1569,36.7273 93.1569,36.7273 
															"/>
							
								<line fill="none" stroke="#000000" stroke-width="0.75" stroke-miterlimit="10" x1="87.4569" y1="32.2273" x2="93.1569" y2="36.7273"/>
						</g>
						<path fill="none" stroke="#000000" stroke-width="0.75" stroke-miterlimit="10" d="M86.8569,18.9273c0.9,1,1.8,3,1.3,4.6
							c-1.4,4.3-5.9,4.6-5.9,4.6"/>
						<path fill="#C9CACC" stroke="#000000" stroke-width="0.75" stroke-miterlimit="10" d="M153.5569,40.1273c0,0-35,16-34.1-21.2
							c-5.7,13-17.2,13.5-20.4,11c-0.9-0.5-3.9-2.4-1.1-6.1c2.9-3.7,7.7-10.5,7.7-10.5s5-6.6,8.3-11.1c3.3-4.4,6.7-3.1,8.2-2.4
							c1.5,0.7,12.2,5.7,12.2,5.7"/>
						<path fill="none" stroke="#000000" stroke-width="0.75" stroke-miterlimit="10" d="M104.3569,15.4273c2.2,1.7,2.3,5.3,0.2,8.1
							c-2.1,2.8-5.6,3.7-7.8,2"/>
					</g>
				</g>
			</g>
		</g>
		<circle fill="none" stroke="#000000" stroke-width="0.75" stroke-miterlimit="10" cx="85.8097" cy="33.675" r="33.3"/>
	</g>
	<g>
		<g>
			<defs>
				<circle id="SVGID_3_" cx="85.8097" cy="105.4392" r="33.3"/>
			</defs>
			<use xlink:href="#SVGID_3_"  overflow="visible" fill="#FFFFFF"/>
			<clipPath id="SVGID_4_">
				<use xlink:href="#SVGID_3_"  overflow="visible"/>
			</clipPath>
			<g clip-path="url(#SVGID_4_)">
				<g>
					
						<rect x="54.0969" y="103.9915" fill="#FFFFFF" stroke="#000000" stroke-width="0.5" stroke-miterlimit="10" width="88.0559" height="14.1"/>
					<g>
						
							<rect x="58.6249" y="107.8801" transform="matrix(0.7071 -0.7071 0.7071 0.7071 -61.0838 74.5019)" width="1.544" height="6.2227"/>
					</g>
					<g>
						
							<rect x="56.2856" y="110.2195" transform="matrix(0.7071 -0.7071 0.7071 0.7071 -61.0859 74.5086)" width="6.2227" height="1.544"/>
					</g>
					<g>
						
							<path fill="none" stroke="#000000" stroke-width="0.5145" stroke-linecap="round" stroke-linejoin="round" stroke-miterlimit="10" d="
							M65.2969,113.9915c0.7,0,2.6-6,3.4-6c0.7,0-1.1,6-0.4,6s2.6-6,3.4-6c0.7,0-1.1,6-0.4,6s2.6-6,3.4-6c0.7,0-1.1,6-0.4,6
							s2.6-6,3.4-6c0.7,0-1.1,6-0.4,6s2.6-6,3.4-6c0.7,0-1.1,6-0.4,6s2.6-6,3.4-6c0.7,0-1.1,6-0.4,6"/>
					</g>
				</g>
				<g>
					<polygon fill="#EBEBEC" points="171.1569,112.4915 144.7569,111.4915 145.0569,84.5915 171.0569,85.5915 					"/>
					<g>
						<path fill="#EBEBEC" stroke="#000000" stroke-width="0.75" stroke-miterlimit="10" d="M91.8569,88.4915
							c-0.2,6.7,1.9,12.8,5.5,17.5c4.6,5.9,11.7,9.7,20.2,9.9c13.8,0.3,25.5-9.6,27.8-22.8"/>
						<path fill="#EBEBEC" stroke="#000000" stroke-width="0.75" stroke-miterlimit="10" d="M106.8569,102.7915
							c6.6,0.2,8.6,3.1,9,5.9c0.3,2.5,0.2,4.8-5.3,4.7c-5.3-0.1-15-0.4-15-0.4s-4.7,0.5-4.6-4.8"/>
						<path fill="#DADBDC" stroke="#000000" stroke-width="0.75" stroke-miterlimit="10" d="M171.1569,112.3915l-17.6-0.4
							c0,0-35,16-34.1-21.2c-5.7,13-17.2,13.5-20.4,11c-0.9-0.5-3.9-2.4-1.1-6.1c2.9-3.7,7.7-10.5,7.7-10.5s5-6.6,8.3-11.1
							c3.3-4.4,6.7-3.1,8.2-2.4"/>
						<path fill="#EBEBEC" stroke="#000000" stroke-width="0.75" stroke-miterlimit="10" d="M87.9569,103.9915c0,0-7.4,0.5-5.4-5.1
							c0,0,15.3-28.7,17.4-29.9c0.6-0.4,23-12.7,27-12.4s34.3,28.6,34.3,28.6l9.9,0.4"/>
						<path fill="#EBEBEC" stroke="#000000" stroke-width="0.75" stroke-miterlimit="10" d="M110.1569,97.5915c6.7,0.2,8.7,3.2,9,6
							c0.2,3.2-0.1,4.7-5.5,4.6c-6.1-0.1-23.7-0.6-23.7-0.6l8-14.7"/>
						<g>
							<path fill="#FFFFFF" stroke="#000000" stroke-width="0.75" stroke-miterlimit="10" d="M84.7569,112.1915
								c-0.2,0.7,0.5,1.3,1.1,0.9l2-2.5l-1.1-0.9L84.7569,112.1915z"/>
							<polygon fill="#FFFFFF" stroke="#000000" stroke-width="0.75" stroke-miterlimit="10" points="146.3569,39.9916 
								140.6569,35.4916 87.4569,103.9915 87.4569,104.0915 85.6569,109.1915 88.5569,111.4915 93.1569,108.4915 93.1569,108.4915 
															"/>
							
								<line fill="none" stroke="#000000" stroke-width="0.75" stroke-miterlimit="10" x1="87.4569" y1="103.9915" x2="93.1569" y2="108.4915"/>
						</g>
						<path fill="none" stroke="#000000" stroke-width="0.75" stroke-miterlimit="10" d="M86.8569,90.6916c0.9,1,1.8,3,1.3,4.6
							c-1.4,4.3-5.9,4.6-5.9,4.6"/>
						<path fill="#EBEBEC" stroke="#000000" stroke-width="0.75" stroke-miterlimit="10" d="M153.5569,111.8915c0,0-35,16-34.1-21.2
							c-5.7,13-17.2,13.5-20.4,11c-0.9-0.5-3.9-2.4-1.1-6.1c2.9-3.7,7.7-10.5,7.7-10.5s5-6.6,8.3-11.1c3.3-4.4,6.7-3.1,8.2-2.4
							c1.5,0.7,12.2,5.7,12.2,5.7"/>
						<path fill="none" stroke="#000000" stroke-width="0.75" stroke-miterlimit="10" d="M104.3569,87.1916c2.2,1.7,2.3,5.3,0.2,8.1
							c-2.1,2.8-5.6,3.7-7.8,2"/>
					</g>
				</g>
			</g>
		</g>
		<circle fill="none" stroke="#000000" stroke-width="0.75" stroke-miterlimit="10" cx="85.8097" cy="105.4392" r="33.3"/>
	</g>
</g>
</svg>
