<?xml version="1.0" encoding="utf-8"?>
<!-- Generator: Adobe Illustrator 24.3.0, SVG Export Plug-In . SVG Version: 6.00 Build 0)  -->
<svg version="1.1" id="Layer_1" xmlns="http://www.w3.org/2000/svg" xmlns:xlink="http://www.w3.org/1999/xlink" x="0px" y="0px"
	 viewBox="0 0 72 72" style="enable-background:new 0 0 72 72;" xml:space="preserve">
<style type="text/css">
	.st0{fill:#FFFFFF;}
</style>
<g>
	<g>
		<g>
			<g>
				<path d="M63.4,72c4.7,0,8.6-3.9,8.6-8.6V8.6C72,3.9,68.1,0,63.4,0L8.6,0C3.9,0,0,3.9,0,8.6l0,54.8C0,68.1,3.9,72,8.6,72H63.4z"
					/>
			</g>
		</g>
	</g>
</g>
<path class="st0" d="M16.2,11.2v49.5h39.6V11.2H16.2z M26.5,54.9c-1.9,0-3.4-1.2-3.4-2.6s1.5-2.6,3.4-2.6c1.9,0,3.4,1.2,3.4,2.6
	S28.4,54.9,26.5,54.9z M26.5,43.4c-1.9,0-3.4-1.2-3.4-2.6s1.5-2.6,3.4-2.6c1.9,0,3.4,1.2,3.4,2.6S28.4,43.4,26.5,43.4z M26.5,31.9
	c-1.9,0-3.4-1.2-3.4-2.6s1.5-2.6,3.4-2.6c1.9,0,3.4,1.2,3.4,2.6S28.4,31.9,26.5,31.9z M49,53.2L49,53.2l-16,0v-1.6h16V53.2z
	 M49,41.6L49,41.6l-16,0V40h16V41.6z M49,30.1L49,30.1H33v-1.6h16V30.1z M49,19.4L49,19.4l-26,0v0v-1.6h26V19.4z"/>
</svg>
