<?xml version="1.0" encoding="utf-8"?>
<!-- Generator: Adobe Illustrator 24.1.3, SVG Export Plug-In . SVG Version: 6.00 Build 0)  -->
<svg version="1.1" id="Layer_1" xmlns="http://www.w3.org/2000/svg" xmlns:xlink="http://www.w3.org/1999/xlink" x="0px" y="0px"
	 viewBox="0 0 72 72" enable-background="new 0 0 72 72" xml:space="preserve">
<g>
	<rect x="40.7172" y="35.5333" width="5.4345" height="5.4345"/>
	<rect x="25.8483" y="28.0988" width="20.3035" height="5.4344"/>
	<rect x="33.2828" y="35.5333" width="5.4344" height="5.4345"/>
	<rect x="33.2828" y="42.9678" width="5.4344" height="5.4344"/>
	<rect x="40.7172" y="42.9678" width="5.4345" height="5.4344"/>
	<rect x="25.8483" y="35.5333" width="5.4345" height="5.4345"/>
	<rect x="25.8483" y="42.9678" width="5.4345" height="5.4344"/>
	<path d="M63.3958,0H8.6044C3.8581,0,0,3.8514,0,8.5988v54.7808C0,68.1485,3.8581,72,8.6044,72h54.7914
		C68.1492,72,72,68.1485,72,63.3796V8.5988C72,3.8514,68.1492,0,63.3958,0z M47.25,11.2574c0-1.2422,1.0073-2.25,2.25-2.25
		s2.25,1.0078,2.25,2.25v9c0,1.2422-1.0073,2.25-2.25,2.25s-2.25-1.0078-2.25-2.25V11.2574z M23.8483,50.4005v-24.3H23.85v-0.0017
		h24.3v0.0017h0.0017v24.3H48.15v0.0017h-24.3v-0.0017H23.8483z M26.375,13.5074h19.25v4.5h-19.25V13.5074z M20.25,11.2574
		c0-1.2422,1.0073-2.25,2.25-2.25s2.25,1.0078,2.25,2.25v9c0,1.2422-1.0073,2.25-2.25,2.25s-2.25-1.0078-2.25-2.25V11.2574z
		 M60.75,60.7574h-49.5v-47.25h7.375v4.5H15.75v38.25h40.5v-38.25h-2.875v-4.5h7.375V60.7574z"/>
</g>
</svg>
