<?xml version="1.0" encoding="UTF-8"?><svg id="Layer_1" xmlns="http://www.w3.org/2000/svg" viewBox="0 0 1250 1250"><defs><style>.cls-1{fill:#63cbe8;}.cls-1,.cls-2{stroke:#1c2854;}.cls-1,.cls-2,.cls-3{stroke-width:46.29px;}.cls-2{fill:#fff;}.cls-3{fill:#d8d8e0;stroke:#17244c;}</style></defs><path class="cls-2" d="M881.54,93.06c-151.02,0-273.45,102.52-273.45,228.99,0,43.39,14.68,83.81,39.71,118.38l-21.36,114.26,110.06-38.79c42.08,22.13,91.69,35.12,145.04,35.12,151.02,0,273.45-102.52,273.45-228.98s-122.43-228.99-273.45-228.99Z"/><circle class="cls-3" cx="881.54" cy="229.17" r="51.98"/><path class="cls-3" d="M881.54,323.88c-29.03,0-87.22,16.82-87.22,50.32v90.86c0,3.54,2.87,6.4,6.4,6.4h161.63c3.54,0,6.4-2.87,6.4-6.4v-90.86c0-33.5-58.18-50.32-87.22-50.32Z"/><path class="cls-1" d="M331.21,351.37c34.44,62.31,68.87,124.63,103.31,186.93-12.61,3.34-81.71,22.63-93.04,71.42-5.71,24.59,5.58,46.59,12.6,59.4,52.81,96.42,203.34,292.42,284.39,257.39,4.63-2,14.49-8.54,34.2-21.6,31.25-20.71,55.73-39.32,72-52.2,50.08,37.81,100.15,75.63,150.23,113.44-7.84,29.04-24.4,72.21-62.03,107.94-96.85,91.98-249.45,55.18-291.59,45.01-129.64-31.26-206.39-115.64-250.19-163.79-48.55-53.38-138.61-171.02-153-334.8-5.68-64.62-12.15-138.33,37.8-197.98,51.29-61.25,130.14-69.54,155.33-71.16Z"/></svg>